<svg width="146" height="146" viewBox="0 0 146 146" fill="none" xmlns="http://www.w3.org/2000/svg">
<g id="Logo">
<path id="Vector" d="M68.2984 98.0526C67.4693 98.5746 66.7297 99.5687 66.9196 101.46C66.9196 101.46 62.6448 102.814 62.5931 105.617C62.5832 106.136 62.9888 106.57 63.5048 106.631C65.5119 106.869 70.6834 108.118 69.733 114.654C68.8383 116.359 67.4942 117.372 65.7217 117.669C64.4402 117.883 63.0584 117.638 61.7263 116.958C58.4924 115.31 56.4991 112.444 55.9593 108.672C55.0577 102.365 58.2597 94.5404 63.9273 89.1999C64.3408 88.8102 64.7862 88.4673 65.2564 88.171C64.4025 91.0112 66.687 94.3823 70.3066 91.6962C74.4253 88.6412 76.9484 90.1026 76.9484 90.1026C76.9394 90.0628 76.9225 90.0221 76.9096 89.9823C77.2854 90.0151 77.6741 89.8968 77.9703 89.6185C78.5191 89.1015 78.5449 88.2366 78.028 87.6879C77.9484 87.6034 77.8689 87.5218 77.7874 87.4403C75.7435 85.3964 73.0414 84.2283 70.1396 84.1418C67.1224 84.0513 64.2513 85.1419 62.0543 87.2127C55.7694 93.1337 52.2333 101.914 53.2553 109.06C53.9263 113.75 56.4256 117.322 60.4846 119.392C62.3426 120.339 64.31 120.675 66.173 120.363C68.4048 119.989 71.3763 118.625 72.8615 114.255C72.8933 114.161 72.9132 114.067 72.9241 113.973C74.1578 111.001 74.0733 106.303 70.8673 98.8768C70.4368 97.8796 69.218 97.4741 68.2984 98.0526Z" fill="#AF9562"/>
<path id="Vector_2" d="M24.7695 78.9604C24.4574 80.8234 24.7934 82.7908 25.7408 84.6488C27.8096 88.7078 31.3834 91.2081 36.0737 91.8781C43.2195 92.9001 51.9987 89.364 57.9197 83.0791C59.9895 80.8821 61.08 78.011 60.9906 74.9938C60.9041 72.092 59.736 69.3899 57.692 67.346C57.6105 67.2645 57.528 67.185 57.4445 67.1054C56.8957 66.5885 56.0308 66.6143 55.5139 67.1631C55.2355 67.4593 55.1163 67.8471 55.1481 68.2228C55.1083 68.2099 55.0695 68.194 55.0298 68.1851C55.0298 68.1851 56.4911 70.7092 53.4352 74.8268C50.749 78.4474 54.1201 80.7309 56.9604 79.877C56.6641 80.3472 56.3211 80.7926 55.9314 81.2061C50.591 86.8737 42.7662 90.0758 36.4595 89.1741C32.6867 88.6343 29.8217 86.6401 28.1734 83.4072C27.4934 82.074 27.2479 80.6932 27.4626 79.4107C27.7599 77.6382 28.7719 76.2941 30.4778 75.3994C37.0132 74.45 38.2628 79.6205 38.5004 81.6277C38.561 82.1426 38.9955 82.5482 39.5144 82.5393C42.3179 82.4876 43.6709 78.2128 43.6709 78.2128C45.5637 78.4017 46.5578 77.6631 47.0787 76.834C47.6583 75.9144 47.2527 74.6956 46.2546 74.2641C38.8285 71.0581 34.1302 70.9736 31.1588 72.2073C31.0643 72.2182 30.9709 72.2381 30.8774 72.2699C26.5073 73.7562 25.1433 76.7286 24.7695 78.9604Z" fill="#AF9562"/>
<path id="Vector_3" d="M62.4022 72.1031C62.4022 72.1031 65.0595 76.6194 61.3395 81.933C61.2619 82.0444 62.9579 81.1477 65.8041 79.5938C64.2503 82.441 63.3536 84.136 63.4649 84.0585C68.7785 80.3394 73.2948 82.9957 73.2948 82.9957L77.6273 73.0644C94.3872 63.7504 118.062 50.449 118.062 50.449L121.782 46.1981L81.7241 63.6729L99.1988 23.6145L94.9479 27.3345C94.9479 27.3345 81.6465 51.0097 72.3335 67.7697L62.4022 72.1031ZM73.4281 71.9709C74.5286 73.0714 74.5286 74.8558 73.4281 75.9563C72.3276 77.0568 70.5431 77.0568 69.4426 75.9563C68.3421 74.8558 68.3421 73.0714 69.4426 71.9709C70.5431 70.8704 72.3276 70.8704 73.4281 71.9709Z" fill="#AF9562"/>
<path id="Vector_4" d="M72.5564 7.12082C108.637 7.12082 137.992 36.4754 137.992 72.5563C137.992 108.637 108.637 137.992 72.5564 137.992C36.4755 137.992 7.12088 108.637 7.12088 72.5563C7.12088 36.4745 36.4745 7.12082 72.5564 7.12082ZM72.5564 3.98238C34.6841 3.98238 3.98242 34.684 3.98242 72.5563C3.98242 110.429 34.6841 141.13 72.5564 141.13C110.429 141.13 141.13 110.429 141.13 72.5563C141.13 34.684 110.429 3.98238 72.5564 3.98238Z" fill="#F66D0F"/>
<path id="Vector_5" d="M145 73C145 33.2355 112.765 1 73 1C33.2355 1 1 33.2355 1 73C1 112.764 33.2355 145 73 145C112.765 145 145 112.764 145 73Z" stroke="#F9D6BF" stroke-width="0.6693" stroke-miterlimit="10" stroke-linecap="round"/>
</g>
</svg>
