<svg width="144" height="144" viewBox="0 0 144 144" fill="none" xmlns="http://www.w3.org/2000/svg">
<g id="Group 24">
<path id="Vector" d="M48.3138 18.162C48.5443 18.1492 48.7751 18.1839 48.9917 18.2638C49.2084 18.3437 49.4063 18.4672 49.5734 18.6266C49.7404 18.786 49.8731 18.978 49.963 19.1906C50.053 19.4033 50.0984 19.6322 50.0964 19.8631C50.0943 20.328 49.9085 20.7732 49.5796 21.1018C49.2507 21.4304 48.8053 21.6157 48.3404 21.6175C47.875 21.6163 47.4285 21.4335 47.0958 21.108C46.7632 20.7825 46.5707 20.34 46.5594 19.8747C46.5378 18.8918 47.2708 18.1787 48.3138 18.162Z" fill="#F36E24"/>
<path id="Vector_2" d="M21.7604 89.2158C22.0236 89.9839 22.2802 90.6919 22.5501 91.3717L22.2169 91.5C22.082 91.5 21.947 91.5 21.827 91.5C21.5571 90.8186 21.3006 90.1121 21.0373 89.3341C21.0303 89.2995 21.0191 89.266 21.004 89.2341C19.2179 83.9617 18.2667 78.4426 18.1851 72.8765H18.9198C18.9993 78.4046 19.9454 83.886 21.7237 89.1208C21.7402 89.1507 21.7526 89.1826 21.7604 89.2158Z" fill="#F36E24"/>
<path id="Vector_3" d="M17.0988 91.5147L16.7656 91.6364H16.7556C16.7556 91.6364 16.7556 91.6364 16.7456 91.6364C16.569 91.5564 16.4691 91.5047 16.2925 91.4198C16.0809 90.81 15.8843 90.2002 15.6877 89.6004C15.6777 89.5704 15.6727 89.5404 15.6627 89.5104C12.2699 78.5385 12.1437 66.8163 15.2995 55.7738C15.3597 55.5612 15.4879 55.3742 15.6646 55.2415C15.8412 55.1088 16.0565 55.0377 16.2775 55.0391C15.4493 57.7501 14.8211 60.5182 14.3982 63.3212C13.094 72.0462 13.7739 80.9529 16.3874 89.3788L16.4174 89.4704C16.624 90.1452 16.8523 90.8383 17.0988 91.5147Z" fill="#F36E24"/>
<path id="Vector_4" d="M10.6195 89.8638C10.8211 90.5486 11.0377 91.2634 11.2859 91.9848L10.9527 92.0947H10.9327C10.7661 92.0098 10.6612 91.9548 10.4846 91.8632C10.278 91.2289 10.0864 90.6091 9.90979 90.0038C9.89979 89.9838 9.89979 89.9638 9.88979 89.9438C5.51793 74.73 6.86923 58.4417 13.6884 44.1564C13.7954 43.9385 13.9615 43.755 14.1677 43.6269C14.3738 43.4988 14.6119 43.4311 14.8546 43.4316C7.66673 57.805 6.14953 74.3566 10.6045 89.7972C10.6095 89.8222 10.6145 89.8389 10.6195 89.8638Z" fill="#F36E24"/>
<path id="Vector_5" d="M37.6328 68.6274C37.871 68.4608 38.1043 68.2842 38.3508 68.1276C38.759 67.8748 39.2011 67.6813 39.6637 67.5528C40.0203 67.4511 40.3866 67.3869 40.7566 67.3612C40.8851 67.3518 41.0122 67.3924 41.1115 67.4745C41.7496 67.9743 42.3793 68.4741 43.0274 68.9623C43.8383 69.5632 44.6596 70.1524 45.4915 70.73C46.073 71.1332 46.6811 71.4997 47.2725 71.8963C47.9989 72.375 48.7209 72.8587 49.4384 73.3474C49.6803 73.4953 49.9098 73.6624 50.1248 73.8473C50.9304 74.579 51.6292 75.4203 52.2007 76.3464C52.4671 76.7676 52.6577 77.2323 52.7638 77.7193C52.8433 78.1344 52.778 78.5643 52.5789 78.9372C52.501 79.1004 52.3868 79.2437 52.245 79.356C52.1032 79.4683 51.9376 79.5468 51.7609 79.5853C51.3468 79.6669 50.9184 79.6369 50.5197 79.4986C50.1002 79.3676 49.7001 79.181 49.3301 78.9438C48.51 78.4435 47.7256 77.8868 46.9826 77.2777C46.776 77.1111 46.5628 76.9445 46.3679 76.7646C45.296 75.7649 44.2281 74.7597 43.1641 73.749C42.9325 73.5324 42.6942 73.3208 42.4593 73.1075L42.0611 72.741C41.9678 72.656 41.8729 72.5744 41.7812 72.4861C41.6896 72.3978 41.6146 72.3195 41.5263 72.2362C41.393 72.1145 41.2531 71.9979 41.1215 71.8746C40.9382 71.6997 40.7616 71.5181 40.575 71.3465C40.3551 71.1432 40.1269 70.9466 39.9086 70.745C39.722 70.5784 39.5404 70.3968 39.3521 70.2269C39.1639 70.0569 39.0056 69.9303 38.834 69.7787L37.936 68.9806C37.821 68.879 37.7094 68.7757 37.6028 68.6724C37.6111 68.6564 37.6212 68.6413 37.6328 68.6274ZM39.7487 69.3655C40.1935 69.772 40.6433 70.1735 41.0815 70.5817C41.1169 70.6187 41.1614 70.6457 41.2105 70.6601C41.2596 70.6744 41.3117 70.6755 41.3614 70.6634C41.8369 70.5694 42.2872 70.3758 42.6826 70.0952C42.8492 69.9669 42.8492 69.857 42.6826 69.717C42.0578 69.1972 41.4314 68.6824 40.8083 68.1609C40.7695 68.1325 40.7238 68.1152 40.6759 68.1108C40.6281 68.1064 40.58 68.1151 40.5367 68.1359C40.1458 68.2278 39.7695 68.3736 39.4188 68.5691C39.3205 68.6291 39.1989 68.6774 39.1889 68.8407C39.3821 69.0123 39.5621 69.1939 39.7487 69.3655ZM44.4486 71.1249C45.7081 72.3361 47.1592 73.2775 48.677 74.1238C48.1172 73.3574 45.5565 71.5381 44.4486 71.1249Z" fill="#F36E24"/>
<path id="Vector_6" d="M47.2744 84.5624L47.3677 84.5457C47.7098 84.5126 48.0409 84.4069 48.339 84.2358C48.5889 84.0863 48.7816 83.8574 48.8864 83.5857C48.9911 83.3139 49.002 83.0149 48.9171 82.7363C48.823 82.4715 48.6948 82.22 48.5356 81.9883C47.9749 81.073 47.3497 80.1988 46.6646 79.3725C46.3562 78.9833 46.0065 78.6285 45.6217 78.3145C45.2648 78.0208 44.825 77.8461 44.3638 77.8147C43.8897 77.7852 43.4138 77.8008 42.9427 77.8614C42.7411 77.888 42.5395 77.9047 42.3362 77.9197C42.2966 77.9282 42.2554 77.9243 42.2181 77.9085C42.1809 77.8927 42.1494 77.8658 42.128 77.8314C41.8164 77.3715 41.5099 76.9067 41.1717 76.4685C40.6835 75.8371 40.172 75.2273 39.6722 74.6058C38.9947 73.7661 38.3183 72.9247 37.643 72.0817C37.4937 71.9379 37.4014 71.745 37.3831 71.5386C37.3831 70.7505 37.3831 69.9624 37.3831 69.1744C37.3862 69.1402 37.3917 69.1062 37.3997 69.0728C37.423 69.0728 37.4314 69.0728 37.4347 69.0811C37.8557 69.4521 38.2761 69.8247 38.6959 70.199C38.9142 70.394 39.1257 70.5989 39.3423 70.7972C39.5589 70.9954 39.7555 71.1754 39.9638 71.362C40.1437 71.5286 40.327 71.6835 40.5052 71.8485C40.7668 72.0884 41.0217 72.3366 41.2833 72.5765C42.2429 73.4562 43.2092 74.3293 44.1639 75.214C45.4051 76.3669 46.6246 77.5465 47.7559 78.8027C48.2556 79.3621 48.6766 79.9871 49.0071 80.6604C49.247 81.1469 49.4619 81.6484 49.6735 82.1599C49.8218 82.5214 49.9467 82.893 50.07 83.2645C50.1933 83.636 50.3016 84.0026 50.4032 84.3758C50.4821 84.649 50.5554 84.9267 50.6232 85.2088C50.6965 85.5054 50.7598 85.8036 50.8347 86.1002C50.9018 86.358 50.9343 86.6235 50.9314 86.8899C50.9284 86.9252 50.9228 86.9603 50.9147 86.9949L47.2677 84.614L47.2744 84.5624ZM42.1596 76.2703C41.2419 74.5741 40.0489 73.0421 38.6293 71.7368C39.6372 73.3813 40.9084 74.8174 42.1596 76.2703Z" fill="#F36E24"/>
<path id="Vector_7" d="M48.0672 78.5177C48.0858 78.5255 48.1037 78.535 48.1205 78.546C48.4537 78.7626 48.7869 78.9875 49.1302 79.1958C49.6868 79.5646 50.3164 79.809 50.9761 79.9122C51.3304 79.9719 51.6941 79.9397 52.0324 79.8189C52.7322 79.5373 53.0187 78.9592 53.0987 78.2578C53.162 77.7196 52.9987 77.2165 52.7771 76.735C52.5199 76.1965 52.2048 75.6875 51.8375 75.2172C51.8161 75.1879 51.7967 75.1573 51.7792 75.1255L51.8008 75.1089C52.0091 75.2905 52.2224 75.4671 52.4273 75.6537C53.0206 76.1587 53.5589 76.725 54.0333 77.3431C54.1999 77.5697 54.3765 77.7863 54.5332 78.0095C54.6898 78.2328 54.7981 78.4327 54.9213 78.6493C55.2246 79.1825 55.5328 79.7139 55.8193 80.2554C56.1305 80.8278 56.392 81.426 56.6007 82.0431C56.7121 82.3642 56.7902 82.6958 56.834 83.0328C56.8352 83.1974 56.8657 83.3604 56.9239 83.5143C56.9968 83.6367 57.0924 83.7442 57.2055 83.8309C57.7053 84.3057 58.1885 84.7822 58.68 85.2587C58.7266 85.3037 58.7683 85.3537 58.8132 85.402C58.7698 85.4077 58.7257 85.4002 58.6866 85.3803C58.1188 85.1047 57.5872 84.76 57.1039 84.354C56.879 84.1657 56.6424 83.9841 56.5341 83.6876C56.5341 83.6726 56.5124 83.6626 56.4941 83.6426C54.833 84.6466 53.0876 85.504 51.2777 86.205C51.2661 86.1779 51.2561 86.1501 51.2477 86.1217C51.1594 85.7369 51.0811 85.3503 50.9828 84.9688C50.8745 84.5506 50.7596 84.1357 50.6279 83.7226C50.4463 83.1511 50.2647 82.5796 50.0482 82.0198C49.8499 81.51 49.62 81.0102 49.3817 80.5203C49.1189 79.9694 48.7959 79.4492 48.4187 78.9692C48.3005 78.8193 48.1755 78.6726 48.0539 78.526L48.0672 78.5177ZM54.2216 79.9289C54.5332 80.8136 54.843 81.6983 55.4162 82.4597C55.3684 81.4913 54.9388 80.5813 54.2216 79.9289Z" fill="#F36E24"/>
<path id="Vector_8" d="M41.4263 78.2896C41.7837 78.2818 42.1413 78.2924 42.4976 78.3212C42.7933 78.3549 43.0844 78.4208 43.3656 78.5178C43.8752 78.7104 44.3279 79.0284 44.6818 79.4425C45.3398 80.1826 45.9365 80.975 46.4661 81.8117C46.4845 81.8417 46.4978 81.8733 46.5228 81.925C45.7997 81.8567 45.3566 82.2032 45.08 82.8263C45.0617 82.803 45.0533 82.7964 45.0483 82.788C44.8817 82.4765 44.7151 82.1532 44.5219 81.8583C44.097 81.2314 43.6217 80.6402 43.1007 80.0906C42.8014 79.7397 42.4146 79.4741 41.9795 79.3209C41.7636 79.2419 41.5701 79.1115 41.4157 78.9412C41.2613 78.7708 41.1506 78.5655 41.0931 78.3429C41.2025 78.3157 41.314 78.2979 41.4263 78.2896Z" fill="#F36E24"/>
<path id="Vector_9" d="M43.4174 78.0895C43.559 78.1512 43.6789 78.2012 43.7955 78.2561C44.3045 78.5076 44.7542 78.8642 45.1151 79.3024C45.7863 80.0779 46.3905 80.9089 46.9211 81.7866C47.0877 82.0631 47.2693 82.3347 47.4309 82.6196C47.5795 82.8861 47.6379 83.1935 47.5975 83.496C47.5698 83.7733 47.4635 84.0369 47.2909 84.2557C47.2778 84.2784 47.2672 84.3024 47.2593 84.3274C47.4042 84.294 47.5275 84.2724 47.6475 84.2391C47.965 84.1718 48.2487 83.9948 48.4488 83.7392C48.564 83.5865 48.6292 83.402 48.6354 83.2108C48.6417 83.0196 48.5887 82.8312 48.4838 82.6713C48.084 82.0048 47.6658 81.3551 47.2393 80.7103C46.8593 80.1392 46.4371 79.5974 45.9764 79.0892C45.7002 78.7611 45.3666 78.4862 44.9918 78.2778C44.7436 78.1578 44.4727 78.0919 44.1971 78.0845C43.9672 78.0712 43.7356 78.0845 43.5057 78.0845C43.4761 78.0833 43.4466 78.0849 43.4174 78.0895Z" fill="#F36E24"/>
<path id="Vector_10" d="M46.6743 84.6738C46.6743 84.9687 46.6743 85.2336 46.6743 85.4969C46.6743 85.5335 46.7226 85.5802 46.7593 85.6052C47.1275 85.8551 47.494 86.105 47.8705 86.3449C48.5836 86.7948 49.3033 87.2329 50.0181 87.6778C50.5202 88.0056 51.0459 88.2957 51.5908 88.5458C51.9889 88.7243 52.4066 88.8552 52.8354 88.9357C52.8986 88.9466 52.9629 88.9499 53.027 88.9457C50.9761 87.4262 48.8135 86.0867 46.6743 84.6738Z" fill="#F36E24"/>
<path id="Vector_11" d="M39.677 67.1415C39.4371 66.9183 39.2272 66.7133 39.0106 66.5217C38.819 66.3551 38.6174 66.2019 38.4141 66.0519C38.3922 66.037 38.3673 66.027 38.3412 66.0224C38.3151 66.0178 38.2883 66.0188 38.2625 66.0253C37.723 66.1839 37.2074 66.4148 36.7298 66.7117C36.6955 66.7352 36.6626 66.7608 36.6315 66.7883L37.8444 67.9796C38.4045 67.6004 39.0238 67.3172 39.677 67.1415Z" fill="#F36E24"/>
<path id="Vector_12" d="M46.3178 82.3099C46.1166 82.311 45.9216 82.3796 45.7639 82.5046C45.6063 82.6297 45.4951 82.804 45.4482 82.9996C45.386 83.1852 45.3762 83.3844 45.42 83.5752C45.4638 83.766 45.5595 83.941 45.6964 84.0809C45.7823 84.1759 45.889 84.2498 46.0082 84.2969C46.1273 84.3439 46.2557 84.3629 46.3833 84.3522C46.511 84.3416 46.6345 84.3017 46.7442 84.2355C46.8539 84.1694 46.9469 84.0789 47.0159 83.971C47.18 83.745 47.2512 83.4647 47.2146 83.1878C47.178 82.9109 47.0365 82.6587 46.8193 82.4831C46.6797 82.3646 46.5008 82.3028 46.3178 82.3099Z" fill="#F36E24"/>
<path id="Vector_13" d="M37.5279 68.2095C37.1863 67.8213 36.8614 67.4431 36.5032 67.0432C36.4799 67.1265 36.4583 67.1848 36.4483 67.2448C36.3592 67.7597 36.3174 68.2817 36.3233 68.8043C36.3266 68.8553 36.3266 68.9065 36.3233 68.9575C36.3109 69.0749 36.3259 69.1936 36.3669 69.3043C36.4079 69.415 36.474 69.5147 36.5599 69.5957C36.6782 69.719 36.7748 69.8622 36.8831 69.9955C36.9048 70.0238 36.9314 70.0488 36.9764 70.0972C36.9764 70.0322 36.9864 69.9972 36.9864 69.9605C36.9864 69.6656 36.9864 69.3691 36.9864 69.0742C36.9888 68.9343 37.0182 68.7963 37.073 68.6676C37.1452 68.518 37.2615 68.3942 37.4062 68.3128C37.4489 68.281 37.4896 68.2465 37.5279 68.2095Z" fill="#F36E24"/>
<path id="Vector_14" d="M57.7019 86.0781C57.6869 86.0598 57.6736 86.0382 57.657 86.0215C57.2988 85.6733 56.9422 85.3234 56.5823 84.9785C56.4157 84.8119 56.2491 84.6586 56.0709 84.5053C56.0359 84.4676 55.9885 84.4438 55.9373 84.4382C55.8861 84.4327 55.8347 84.4459 55.7925 84.4753C55.7503 84.5048 55.7201 84.5485 55.7076 84.5984C55.6951 84.6483 55.701 84.7011 55.7243 84.7469C55.7662 84.8166 55.8142 84.8823 55.8676 84.9435C56.0723 85.1636 56.3028 85.3583 56.554 85.5233C56.878 85.7469 57.2276 85.931 57.5953 86.0715C57.6259 86.0821 57.657 86.091 57.6886 86.0981L57.7019 86.0781Z" fill="#F36E24"/>
<path id="Vector_15" d="M54.0233 87.9793C53.8834 87.831 53.7518 87.6827 53.6101 87.5445C53.2286 87.1746 52.8454 86.8097 52.4606 86.4448C52.421 86.4024 52.3742 86.3674 52.3223 86.3415C52.2792 86.3233 52.2313 86.3195 52.1859 86.331C52.1405 86.3424 52.1 86.3683 52.0707 86.4049C52.0417 86.446 52.0271 86.4956 52.0292 86.546C52.0313 86.5963 52.05 86.6445 52.0824 86.6831C52.2478 86.9058 52.4474 87.1009 52.6738 87.2612C53.0756 87.5587 53.5169 87.7987 53.985 87.9743C53.9975 87.9777 54.0104 87.9794 54.0233 87.9793Z" fill="#F36E24"/>
<path id="Vector_16" d="M56.5225 86.7482C56.5038 86.7232 56.4838 86.6993 56.4625 86.6765C55.9461 86.1812 55.429 85.6869 54.9114 85.1937C54.8716 85.1523 54.8216 85.1218 54.7665 85.1054C54.7245 85.0929 54.6795 85.0956 54.6393 85.1129C54.5991 85.1303 54.5663 85.1613 54.5466 85.2004C54.522 85.2386 54.5104 85.2839 54.5137 85.3292C54.517 85.3746 54.535 85.4177 54.5649 85.452C54.7319 85.6412 54.9111 85.8193 55.1014 85.9851C55.5251 86.3233 56.0066 86.5818 56.5225 86.7482Z" fill="#F36E24"/>
<path id="Vector_17" d="M55.3379 87.3982L54.7814 86.8701L53.7368 85.8704C53.7061 85.8386 53.6707 85.8117 53.6319 85.7905C53.5868 85.7704 53.5361 85.7665 53.4885 85.7796C53.441 85.7926 53.3994 85.8218 53.3709 85.8621C53.3424 85.9024 53.3287 85.9513 53.3323 86.0005C53.3358 86.0497 53.3563 86.0962 53.3903 86.132C53.5694 86.329 53.7614 86.5137 53.9651 86.6852C54.3647 86.9935 54.8084 87.2401 55.2812 87.4166C55.2957 87.4222 55.3108 87.4261 55.3262 87.4282L55.3379 87.3982Z" fill="#F36E24"/>
<path id="Vector_18" d="M41.5463 69.2158L40.5466 69.694L41.293 70.4071C41.6636 70.308 42.0115 70.1383 42.3176 69.9073L41.5463 69.2158Z" fill="#F36E24"/>
<path id="Vector_19" d="M40.3435 69.5125L41.3431 69.036L40.6767 68.4329C40.3167 68.5326 39.9741 68.6866 39.6604 68.8894L40.3435 69.5125Z" fill="#F36E24"/>
<path id="Vector_20" d="M31.6799 118.691L31.7699 119.107L31.5616 119.44L31.2284 119.589L30.8419 119.649H30.4254L29.7423 119.589L29.2958 119.56H27.9629L26.1186 119.679L25.7321 119.56L25.5538 119.322L25.4056 118.989L24.4842 116.49L24.276 116.192L24.0077 116.133L23.6512 116.103L21.8669 115.983H21.392L19.1612 115.925L17.3752 115.895H16.9304L16.4839 115.925H15.116L14.7295 115.983L14.4913 116.133L14.313 116.49L13.6299 118.512L13.4517 118.987L13.1184 119.374L12.6719 119.554L12.1971 119.524L10.4728 119.434H9.99627L8.15195 119.554L7.7671 119.582L7.4089 119.404L7.17065 119.071L7.20064 118.684L7.26062 118.446L7.43889 117.969L7.8554 117.048L8.03367 116.601L8.77672 114.935L8.95499 114.519L9.72804 112.853L9.9063 112.406L10.5911 110.8L10.7693 110.354L11.5724 108.688L11.7506 108.269L12.8219 105.832L13.6549 104.047L13.8632 103.571L14.5179 102.238L14.7262 101.763L15.291 100.394L15.4692 99.9489L16.0057 98.7293L16.154 98.3961L16.4522 98.2162L16.897 98.1278L18.2649 98.0679H20.584L21.9518 98.0979L22.4517 98.1862L22.7849 98.4244L22.9348 98.8126L23.3513 99.9789L23.5279 100.424L24.2726 101.822L24.4509 102.238L25.1057 103.696L25.2823 104.112L25.8187 105.629L25.997 106.045L26.6518 107.473L26.83 107.889L27.4831 109.346L27.6614 109.762L28.2562 111.248L28.4361 111.665L29.3574 113.509L30.0705 114.907L30.2788 115.324L31.0818 117.196L31.6799 118.691ZM21.7469 110.304L21.6286 109.917L20.9739 107.896L20.8256 107.45L20.2308 105.695L20.0825 105.309L19.7843 105.1L19.3995 105.01L19.0662 105.1L18.7697 105.397L17.9667 107.42L17.7884 107.864L17.0153 109.864L16.9254 110.31L17.0187 110.665L17.3519 110.813L17.7684 110.873H19.641L21.0388 110.962L21.4254 110.842L21.6636 110.605L21.7469 110.304Z" fill="#F36E24"/>
<path id="Vector_21" d="M48.2389 100.4L48.2089 100.846L48.2389 101.739L48.2089 102.214L48.1789 102.453L48.1206 102.809L48.0323 103.017L47.8524 103.166L47.4958 103.226H47.021L46.128 103.136L45.6515 103.107L44.2853 103.196H43.8089L43.0658 103.136H42.6193L42.411 103.166L42.1145 103.256L41.9945 103.434L41.9645 103.82L41.8429 105.575V106.051L41.9612 107.836L41.9312 108.311L41.8129 110.095L41.7829 110.571L41.8429 112.331V115.067L41.7829 116.821L41.8129 117.267L41.9612 118.6L41.9912 119.077L41.9012 119.433L41.753 119.582L41.3664 119.642L40.8016 119.612L40.0586 119.523L39.5588 119.492L38.2259 119.582H37.7511L36.4183 119.492L36.0601 119.463L35.8818 119.373L35.8218 119.04V118.54L35.9118 117.291L35.9418 116.814V114.585L35.9718 112.799V112.331L36.0001 110.576V110.1L35.8818 108.316L35.8451 107.832V105.575L35.7852 103.82V103.404L35.6969 103.166L35.4003 103.107H34.9538L34.0025 103.166H33.466L32.663 103.107L32.1632 103.077L31.6634 103.107L30.9803 103.136H30.5138L30.2755 103.107L29.9423 103.047L29.7641 102.929L29.6441 102.751L29.5858 102.453V102.244L29.5558 101.769L29.6158 100.876V100.43L29.5258 99.3003L29.5558 98.8255L29.6441 98.4373L29.7641 98.229L29.9423 98.1407L30.2405 98.0807H30.9236L32.0249 98.1707H32.513L34.2374 98.0524H34.7139L36.4682 98.199H36.9447L39.1456 98.0524L40.8699 98.0807H41.3431L43.5723 98.0524H45.7731L46.7544 97.9924L47.2542 98.0224L47.4908 98.0524L47.8474 98.1107L48.0556 98.229L48.2039 98.4373L48.2639 98.7955V99.0021L48.2939 99.4469L48.2389 100.4Z" fill="#F36E24"/>
<path id="Vector_22" d="M91.2095 78.3912C91.163 78.4001 91.115 78.3982 91.0693 78.3855C91.0236 78.3728 90.9815 78.3496 90.9463 78.3179C90.5181 77.8364 90.0999 77.3365 89.6734 76.8367C89.5368 76.6701 89.4002 76.5185 89.2553 76.3369C89.1919 76.3919 89.137 76.4285 89.0737 76.4918C89.4285 76.9017 89.7734 77.3099 90.1283 77.7197C90.3282 77.9647 90.5281 78.2012 90.7364 78.4378C90.828 78.5461 90.8913 78.6561 90.7647 78.771C90.6381 78.886 90.5364 78.8077 90.4465 78.6977C89.9467 78.1079 89.4369 77.5165 88.937 76.9267C88.8821 76.8717 88.8371 76.8167 88.7704 76.7601L88.6038 76.905C88.9687 77.3415 89.3319 77.7681 89.6951 78.1962C89.8767 78.3962 90.05 78.6044 90.2316 78.8144C90.3215 78.9227 90.4398 79.0326 90.2949 79.1859C90.2032 79.2859 90.0866 79.2509 89.94 79.0693C89.4035 78.4412 88.8687 77.8147 88.3139 77.1599C88.2506 77.2049 88.1957 77.2516 88.1223 77.3049C88.3323 77.5415 88.5222 77.7681 88.7138 77.9963C89.0687 78.4145 89.4402 78.841 89.7851 79.2692C89.8159 79.305 89.8384 79.3472 89.8511 79.3927C89.8637 79.4382 89.8662 79.4859 89.8584 79.5324C89.8217 79.6774 89.6401 79.6774 89.5135 79.5324C89.122 79.0776 88.7321 78.6144 88.3473 78.1596C88.1807 77.968 88.0141 77.7681 87.8391 77.5598C87.7741 77.6148 87.7208 77.6598 87.6725 77.7147C88.0057 78.1229 88.3389 78.5145 88.6821 78.9043L89.3352 79.6691C89.4269 79.7774 89.4902 79.8873 89.3536 80.0023C89.2169 80.1172 89.127 80.0389 89.0353 79.929C88.5355 79.3292 88.009 78.7294 87.4992 78.1213C87.4626 78.0746 87.4176 78.0296 87.3726 77.9747C87.3093 78.0296 87.2543 78.0746 87.191 78.1213C87.381 78.3479 87.5542 78.5578 87.7358 78.766L88.8454 80.0656L88.8721 80.0939C88.9637 80.1939 88.9987 80.3105 88.8821 80.4105C88.7654 80.5104 88.6638 80.4571 88.5722 80.3472C88.1457 79.839 87.7092 79.3292 87.2727 78.821C87.1544 78.6761 87.0278 78.5295 86.8995 78.3845C86.8362 78.4295 86.7812 78.4761 86.7179 78.5295C86.8995 78.7477 87.0811 78.9576 87.2627 79.1659C87.6359 79.6108 88.0091 80.0389 88.3806 80.4838C88.4366 80.5563 88.4628 80.6475 88.4539 80.7387C88.4272 80.8936 88.2356 80.9053 88.1207 80.7653C87.7875 80.3938 87.4759 80.0206 87.1577 79.6474C86.9211 79.3575 86.6762 79.0759 86.4213 78.7844C86.3663 78.8394 86.313 78.876 86.2547 78.9293C86.408 79.1209 86.5529 79.2925 86.7079 79.4758C87.0994 79.939 87.4892 80.3938 87.8891 80.857C87.9074 80.8836 87.9258 80.902 87.9441 80.9286C88.0257 81.0203 88.054 81.1286 87.9441 81.2119C87.8341 81.2952 87.7358 81.2752 87.6542 81.1752C87.3626 80.842 87.0811 80.5088 86.7995 80.1839C86.5179 79.859 86.2447 79.5291 85.9531 79.1842C85.8998 79.2309 85.8449 79.2759 85.7715 79.3308C85.9531 79.5391 86.1264 79.749 86.2997 79.949C86.6812 80.3938 87.0544 80.8387 87.4359 81.2818C87.5359 81.4001 87.6025 81.5101 87.4626 81.6267C87.3226 81.7433 87.226 81.6367 87.1294 81.5367C86.6112 80.927 86.0931 80.3188 85.565 79.7041C85.5375 79.6659 85.5075 79.6297 85.475 79.5958C85.4117 79.6407 85.365 79.6774 85.2934 79.7324C85.3567 79.804 85.4117 79.8773 85.46 79.9406C85.9515 80.5138 86.433 81.0869 86.9245 81.6584C86.9428 81.6867 86.9694 81.705 86.9878 81.7317C87.0079 81.7492 87.024 81.7708 87.0351 81.7951C87.0462 81.8194 87.0519 81.8458 87.0519 81.8725C87.0519 81.8992 87.0462 81.9255 87.0351 81.9498C87.024 81.9741 87.0079 81.9957 86.9878 82.0133C86.8778 82.1132 86.7778 82.0766 86.6879 81.9766C86.378 81.6217 86.0698 81.2585 85.7699 80.8953C85.515 80.6037 85.2601 80.3038 84.9968 79.9956C84.9373 80.0392 84.8816 80.0877 84.8302 80.1406C84.8752 80.1955 84.9119 80.2505 84.9468 80.2955C85.4567 80.8953 85.9748 81.4951 86.483 82.0949C86.5746 82.2049 86.6379 82.3131 86.5113 82.4281C86.3847 82.5431 86.283 82.4631 86.1931 82.3548C85.6833 81.755 85.1651 81.1552 84.657 80.5554C84.612 80.5088 84.5753 80.4638 84.5203 80.4005C84.4693 80.4538 84.4136 80.5023 84.3537 80.5454C84.5003 80.712 84.637 80.8786 84.7719 81.0452C85.1818 81.5451 85.6049 82.0183 86.0081 82.5097C86.0394 82.5452 86.0623 82.5874 86.075 82.633C86.0877 82.6785 86.0899 82.7264 86.0814 82.773C86.0448 82.9179 85.8632 82.9179 85.7366 82.773C85.3367 82.3098 84.9452 81.845 84.5453 81.3735C84.3787 81.1919 84.2271 81.0003 84.0538 80.8087C84.0005 80.8553 83.9456 80.9003 83.8723 80.9553C84.0189 81.1219 84.1538 81.2885 84.2904 81.4451C84.6903 81.9183 85.1001 82.3915 85.5 82.863C85.5266 82.8913 85.545 82.9179 85.5716 82.9446C85.5937 82.9632 85.6113 82.9865 85.6231 83.0128C85.6349 83.0391 85.6406 83.0677 85.6398 83.0965C85.639 83.1254 85.6317 83.1537 85.6185 83.1793C85.6052 83.2049 85.5864 83.2272 85.5633 83.2445C85.5427 83.2622 85.5185 83.2752 85.4924 83.2826C85.4663 83.29 85.4389 83.2917 85.4121 83.2874C85.3853 83.2831 85.3597 83.273 85.3372 83.2578C85.3147 83.2427 85.2958 83.2228 85.2817 83.1995C84.9185 82.773 84.5537 82.3548 84.1905 81.9266C83.9905 81.6917 83.7906 81.4634 83.5824 81.2102C83.5274 81.2552 83.4724 81.3002 83.4008 81.3551C83.4541 81.4185 83.5007 81.4818 83.5457 81.5367C84.0355 82.1099 84.527 82.6914 85.0185 83.2628C85.0387 83.2824 85.0565 83.3042 85.0718 83.3278C85.1718 83.4278 85.2184 83.5444 85.0901 83.6444C84.9619 83.7443 84.8635 83.681 84.7819 83.581C84.4904 83.2278 84.1905 82.8813 83.9006 82.5364C83.6357 82.2365 83.3824 81.9366 83.1092 81.6184C83.0276 81.6817 82.9543 81.745 82.8643 81.8183C83.1975 82.2098 83.519 82.5914 83.8356 82.9629C84.0722 83.2362 84.3004 83.4994 84.527 83.781C84.5637 83.8276 84.5537 83.9093 84.5637 83.9726C84.5003 83.9459 84.4187 83.9359 84.3821 83.8909C83.8639 83.2995 83.3541 82.6913 82.836 82.0916C82.801 82.0549 82.7643 82.0099 82.7177 81.9549C82.6644 81.9999 82.6094 82.0366 82.5511 82.0916C82.5877 82.1449 82.6227 82.1915 82.6594 82.2365C83.1514 82.8096 83.6396 83.3822 84.1238 83.9542C84.1505 83.9909 84.1955 84.0176 84.2055 84.0542C84.2268 84.1188 84.2386 84.1861 84.2404 84.2541C84.1871 84.2275 84.1055 84.2275 84.0738 84.1808C83.9639 84.0725 83.8639 83.9459 83.764 83.8276C83.3108 83.2995 82.8643 82.773 82.4011 82.2265C82.3378 82.2732 82.2828 82.3181 82.2195 82.3731C82.6644 82.8913 83.0925 83.3994 83.5191 83.8993C83.6457 84.0459 83.774 84.1908 83.8823 84.3358C83.9189 84.3808 83.9106 84.4624 83.9189 84.5274C83.8594 84.5175 83.8027 84.4954 83.7523 84.4624C83.2342 83.8626 82.7343 83.2728 82.2262 82.673C82.1812 82.618 82.1346 82.5731 82.0813 82.5064C82.018 82.5512 81.9574 82.5996 81.8996 82.6514C82.0996 82.8779 82.2812 83.1062 82.4711 83.3178C82.8343 83.736 83.1892 84.1625 83.5524 84.589C83.589 84.6357 83.5807 84.7256 83.599 84.7989C83.5357 84.7706 83.4441 84.754 83.4074 84.7073C82.8526 84.0709 82.3162 83.4344 81.753 82.7713C81.6997 82.8263 81.6348 82.8713 81.5714 82.9263C81.9713 83.3894 82.3628 83.8526 82.7627 84.3174C82.9176 84.4991 83.0809 84.689 83.2342 84.8806C83.2708 84.9256 83.2625 85.0072 83.2808 85.0705C83.2121 85.0624 83.1464 85.0378 83.0892 84.9989C82.5627 84.3802 82.0329 83.7621 81.4998 83.1445C81.4781 83.115 81.4535 83.0877 81.4265 83.0629C81.3682 83.105 81.3126 83.1506 81.2599 83.1995C81.3065 83.2528 81.3415 83.3078 81.3882 83.3661C81.888 83.9476 82.3878 84.5324 82.8876 85.1205C82.9143 85.1572 82.9509 85.1738 82.9509 85.2105C82.9568 85.2595 82.9534 85.3093 82.9409 85.3571C82.8959 85.3471 82.841 85.3571 82.8143 85.3288C82.7405 85.2599 82.6735 85.184 82.6144 85.1022C82.1146 84.5207 81.6147 83.9359 81.1149 83.3378C81.05 83.3844 81.005 83.4294 80.9317 83.4844C81.0983 83.6843 81.2649 83.8659 81.4148 84.0559C81.8047 84.5107 82.1962 84.9656 82.5811 85.4287C82.6111 85.4911 82.627 85.5594 82.6277 85.6287C82.5627 85.602 82.4728 85.592 82.4361 85.547C81.8813 84.9106 81.3448 84.2741 80.7817 83.621C80.7267 83.666 80.6734 83.7027 80.6001 83.756C80.6487 83.809 80.6943 83.8646 80.7367 83.9226C81.2266 84.4941 81.718 85.0755 82.2095 85.6487C82.2362 85.6853 82.2812 85.712 82.2912 85.7486C82.3005 85.8038 82.3005 85.8601 82.2912 85.9152C82.2421 85.9112 82.1935 85.9023 82.1462 85.8886C82.1036 85.8581 82.0692 85.8174 82.0463 85.7703L80.4469 83.8976C80.3919 83.9443 80.3369 83.9892 80.2803 84.0342C80.3169 84.0892 80.3536 84.1342 80.3802 84.1792C80.89 84.7706 81.3898 85.3621 81.898 85.9519C81.9394 85.9909 81.9733 86.0372 81.9979 86.0885C82.0079 86.1152 81.9796 86.1701 81.9613 86.1968C81.9462 86.2057 81.9289 86.2105 81.9113 86.2105C81.8937 86.2105 81.8765 86.2057 81.8613 86.1968C81.8208 86.1654 81.7844 86.129 81.753 86.0885C81.2532 85.497 80.7534 84.9222 80.2536 84.3258C80.2169 84.2791 80.172 84.2341 80.1253 84.1792C80.062 84.2258 80.007 84.2708 79.9437 84.3258L81.0433 85.6153C81.2249 85.8336 81.4165 86.0435 81.5981 86.2701C81.6347 86.3151 81.6347 86.4067 81.6531 86.47C81.5818 86.4559 81.5139 86.4282 81.4531 86.3884C80.9167 85.7703 80.3902 85.1522 79.8621 84.534C79.8388 84.5115 79.8176 84.487 79.7988 84.4607C79.7438 84.4974 79.6905 84.544 79.6322 84.5973C79.6688 84.6523 79.7055 84.6973 79.7421 84.744C80.2419 85.3338 80.7417 85.9102 81.2416 86.5067C81.282 86.5395 81.3159 86.5797 81.3415 86.625C81.3431 86.668 81.3368 86.7108 81.3232 86.7516C81.2782 86.7516 81.2232 86.7616 81.1966 86.7333C81.1186 86.6564 81.0457 86.5746 80.9783 86.4884C80.4868 85.9152 79.987 85.3338 79.4789 84.734C79.4239 84.779 79.3689 84.8256 79.2956 84.8789C79.7132 85.371 80.1225 85.853 80.5235 86.3251C80.6684 86.4917 80.8234 86.67 80.9683 86.8432C80.9918 86.901 81.0042 86.9626 81.005 87.0248C80.9417 87.0065 80.86 87.0065 80.8234 86.9615C80.3052 86.3617 79.7954 85.7619 79.279 85.1622C79.2423 85.1155 79.1956 85.0705 79.1507 85.0155C79.0874 85.0622 79.0324 85.1072 78.9691 85.1622C79.3239 85.5703 79.6605 85.9702 79.9954 86.3701C80.2136 86.615 80.4319 86.8699 80.6318 87.1148C80.6684 87.1615 80.6601 87.2431 80.6784 87.3147C80.6119 87.2986 80.5476 87.2746 80.4868 87.2431C79.942 86.5967 79.3872 85.9519 78.8208 85.2888C78.7636 85.3411 78.7029 85.3895 78.6392 85.4337C79.1023 85.9785 79.5572 86.515 80.0104 87.0515C80.1144 87.1604 80.2118 87.2756 80.3019 87.3964C80.3386 87.443 80.3286 87.5247 80.3386 87.588C80.2836 87.5613 80.2019 87.5613 80.157 87.5147C79.6471 86.9249 79.139 86.3251 78.6292 85.7253C78.5925 85.6786 78.5476 85.6337 78.4926 85.5703L78.326 85.7153C78.8891 86.3817 79.4522 87.0482 80.0153 87.6979C79.8337 87.8429 79.5972 87.8062 79.3972 87.588C79.1973 87.3697 79.0157 87.1515 78.8258 86.9332C78.6075 86.67 78.3793 86.4151 78.1594 86.1518C78.0594 86.0252 77.9928 86.0152 77.8412 86.1152C77.5425 86.3164 77.2295 86.4957 76.9048 86.6516C76.3442 86.8997 75.8086 87.201 75.3054 87.5513C75.2726 87.5728 75.2419 87.5973 75.2138 87.6246C74.8689 87.8696 74.5324 88.1328 74.1958 88.406C73.4694 88.9875 72.7597 89.6056 72.0416 90.2054C71.7784 90.4337 71.5152 90.6503 71.2519 90.8718C71.2153 90.9002 71.1869 90.9268 71.152 90.9535H69.5692C69.8341 90.7086 70.1057 90.4637 70.3689 90.2187C71.2975 89.3535 72.231 88.4899 73.1696 87.628C73.5028 87.3097 73.851 86.9999 74.1958 86.6833C75.632 85.3504 77.0759 84.0176 78.5276 82.6847C79.8604 81.4751 81.2449 80.3388 82.6077 79.1759L87.1594 75.2456C87.2622 75.1509 87.3738 75.0661 87.4926 74.9924C88.0474 74.6192 88.5389 74.6741 88.9837 75.159C89.3569 75.5772 89.7201 76.0137 90.0833 76.4402C90.3565 76.7584 90.6381 77.0583 90.893 77.3949C91.0431 77.6308 91.1767 77.8769 91.2928 78.1313C91.3362 78.2462 91.3245 78.3628 91.2095 78.3912Z" fill="#F36E24"/>
<path id="Vector_23" d="M78.7675 90.942H77.1764C77.1398 90.9153 77.1131 90.8887 77.0765 90.8604C76.8032 90.6421 76.54 90.4155 76.2768 90.1939C75.5687 89.5941 74.8689 88.9843 74.1409 88.4029C73.8077 88.1296 73.4595 87.8664 73.1146 87.6215C73.0861 87.5946 73.0555 87.57 73.023 87.5482C72.522 87.1944 71.986 86.8929 71.4236 86.6485C71.1023 86.4912 70.7932 86.3102 70.4989 86.107C70.344 86.007 70.2707 86.017 70.1657 86.1437C69.9474 86.4069 69.7209 86.6618 69.4993 86.9251C69.3077 87.1433 69.1261 87.3716 68.9261 87.5798C68.7262 87.7881 68.4996 87.8397 68.333 87.6898C68.8878 87.035 69.451 86.3803 70.0224 85.7072C69.9508 85.6538 69.9058 85.6072 69.8408 85.5622C69.7875 85.6255 69.7508 85.6705 69.7059 85.7172C69.196 86.3169 68.6879 86.9167 68.1781 87.5065C68.1414 87.5532 68.0598 87.5532 67.9965 87.5798C68.0048 87.5165 67.9965 87.4349 68.0331 87.3882C68.1231 87.2716 68.2231 87.1533 68.323 87.0434L69.6959 85.4256C69.6326 85.3706 69.5692 85.3356 69.5143 85.2806C68.9511 85.9471 68.4047 86.5885 67.8482 87.235C67.8116 87.2716 67.7199 87.2799 67.6649 87.3066C67.6749 87.235 67.665 87.1533 67.7016 87.1067C67.9115 86.8534 68.1198 86.6068 68.338 86.3619C68.6712 85.9621 69.0195 85.5622 69.366 85.154L69.1994 85.0074C69.151 85.0536 69.1054 85.1025 69.0628 85.154C68.563 85.7538 68.0365 86.3536 67.5183 86.9534C67.4817 86.9984 67.4001 86.9984 67.3367 87.0167C67.3551 86.9534 67.3367 86.8801 67.3817 86.8351C67.5183 86.6685 67.6716 86.4885 67.8182 86.3169C68.2264 85.8438 68.6263 85.3623 69.0444 84.8708C68.9811 84.8175 68.9261 84.7708 68.8628 84.7258C68.3547 85.3256 67.8632 85.9071 67.3634 86.4802C67.2901 86.5619 67.2268 86.6468 67.1551 86.7251C67.1268 86.7535 67.0635 86.7435 67.0185 86.7435C67.0085 86.6985 66.9902 86.6535 67.0085 86.6168C67.0282 86.5701 67.0598 86.5293 67.1002 86.4985C67.6 85.9071 68.0998 85.3323 68.5996 84.7358L68.7179 84.5892C68.6446 84.5359 68.5896 84.4892 68.5363 84.4526C68.5169 84.4785 68.4958 84.503 68.473 84.5259C67.9449 85.144 67.4184 85.7621 66.8819 86.3802C66.8211 86.4201 66.7533 86.4478 66.682 86.4619C66.7003 86.3986 66.7003 86.3069 66.7453 86.262C66.9119 86.0354 67.1085 85.8254 67.2901 85.6072L68.3897 84.3176L68.2231 84.171C68.1747 84.2172 68.1291 84.2662 68.0865 84.3176C67.5866 84.9074 67.0868 85.4839 66.587 86.0804C66.5562 86.1187 66.5228 86.1549 66.4871 86.1887C66.4604 86.207 66.3954 86.207 66.3871 86.1887C66.3788 86.1703 66.3321 86.107 66.3504 86.0804C66.3751 86.0291 66.409 85.9828 66.4504 85.9437C66.9502 85.3539 67.45 84.7625 67.9598 84.171C67.9948 84.126 68.0231 84.081 68.0598 84.0261C68.002 83.9833 67.9464 83.9377 67.8932 83.8894C67.3567 84.5259 66.8203 85.144 66.2938 85.7621C66.2708 85.8093 66.2365 85.8499 66.1938 85.8804C66.1469 85.8956 66.0982 85.9046 66.0489 85.9071C66.0423 85.8515 66.0451 85.7952 66.0572 85.7405C66.0672 85.7038 66.1122 85.6772 66.1389 85.6405C66.6303 85.0674 67.1201 84.4859 67.62 83.9144C67.6595 83.8565 67.7024 83.8009 67.7483 83.7478C67.6749 83.6945 67.62 83.6579 67.5667 83.6129C67.0119 84.266 66.4671 84.9024 65.9123 85.5389C65.8756 85.5839 65.784 85.5939 65.7207 85.6205C65.739 85.5572 65.7307 85.4656 65.7757 85.4206C66.1572 84.9574 66.5487 84.5026 66.9419 84.0477C67.0968 83.8578 67.2601 83.6762 67.4234 83.4763C67.3517 83.4213 67.3051 83.3763 67.2418 83.3296C66.742 83.9211 66.2421 84.5126 65.7423 85.094C65.6822 85.1751 65.6154 85.2509 65.5424 85.3206C65.5141 85.3489 65.4608 85.3389 65.4141 85.3489C65.405 85.3005 65.405 85.2508 65.4141 85.2023C65.4141 85.1657 65.4591 85.149 65.4774 85.1124C65.9772 84.5309 66.4771 83.9461 66.9769 83.358C67.0189 83.2996 67.0645 83.244 67.1135 83.1914C67.0402 83.1364 66.9869 83.0914 66.9319 83.0547C66.9036 83.0914 66.8769 83.1097 66.8586 83.1364C66.3321 83.7539 65.8023 84.3721 65.2692 84.9907C65.2325 85.0357 65.1509 85.0457 65.0859 85.0624C65.0959 84.9991 65.0859 84.9174 65.1226 84.8724C65.2775 84.6808 65.4408 84.4909 65.604 84.3093C65.9956 83.8445 66.3871 83.3813 66.7869 82.9181L66.6037 82.7632C66.0505 83.4296 65.5041 84.0627 64.951 84.6992C64.9143 84.7458 64.8227 84.7625 64.7594 84.7908C64.7777 84.7175 64.7677 84.6242 64.8143 84.5809C65.1692 84.1544 65.5324 83.7278 65.8856 83.3097C66.0772 83.0914 66.2588 82.8631 66.4587 82.6432C66.4007 82.5919 66.3401 82.5435 66.2771 82.4983C66.2321 82.5616 66.1872 82.6066 66.1405 82.6649C65.6324 83.2647 65.1226 83.8545 64.6144 84.4543C64.5634 84.486 64.5069 84.5081 64.4478 84.5192C64.4578 84.4543 64.4478 84.3726 64.4745 84.3276C64.5844 84.1827 64.721 84.0377 64.8393 83.8911C65.2658 83.3913 65.7023 82.8915 66.1389 82.365C66.0755 82.31 66.0206 82.265 65.9572 82.2184C65.4924 82.7648 65.0476 83.2913 64.5928 83.8195C64.4928 83.9378 64.3928 84.0644 64.2845 84.1727C64.2479 84.2193 64.1746 84.2193 64.1179 84.246C64.1252 84.1785 64.1375 84.1117 64.1546 84.0461C64.1646 84.0094 64.2096 83.9828 64.2362 83.9461C64.7277 83.373 65.2092 82.8015 65.699 82.2284C65.7357 82.1834 65.7723 82.1367 65.8173 82.0834C65.7457 82.0284 65.699 81.9918 65.6357 81.9468C65.5907 82.0018 65.5541 82.0468 65.5174 82.0834C64.9993 82.6832 64.4911 83.2913 63.973 83.8828C63.9363 83.9278 63.8547 83.9378 63.7914 83.9644C63.7997 83.9011 63.7914 83.8195 63.8364 83.7728C64.0546 83.4913 64.2912 83.228 64.5178 82.9548C64.836 82.5832 65.1642 82.2017 65.4908 81.8102C65.3991 81.7369 65.3242 81.6736 65.2542 81.6102C64.9826 81.9285 64.7177 82.2284 64.4645 82.5283C64.1646 82.8731 63.873 83.2197 63.5731 83.5729C63.4915 83.6729 63.3915 83.7395 63.2732 83.6362C63.155 83.5329 63.1916 83.4196 63.2816 83.3196C63.2974 83.296 63.3158 83.2742 63.3366 83.2547C63.8364 82.6832 64.3179 82.1017 64.8093 81.5286C64.8543 81.4736 64.8993 81.4103 64.9543 81.347C64.8826 81.292 64.8277 81.247 64.7727 81.202C64.5644 81.4553 64.3645 81.6836 64.1646 81.9185C63.7997 82.3467 63.4365 82.7648 63.0816 83.1914C63 83.283 62.9 83.3196 62.8001 83.2363C62.7758 83.2202 62.7556 83.1987 62.7411 83.1735C62.7265 83.1483 62.718 83.12 62.7163 83.091C62.7145 83.0619 62.7195 83.0328 62.7308 83.006C62.7422 82.9792 62.7596 82.9554 62.7818 82.9365C62.8093 82.9122 62.8339 82.8848 62.8551 82.8548C63.2632 82.3833 63.6631 81.9101 64.0646 81.437C64.1996 81.2704 64.3362 81.1187 64.4811 80.9471C64.4095 80.8922 64.3545 80.8472 64.2995 80.8005C64.1329 80.9921 63.9663 81.1837 63.8097 81.3653C63.4099 81.8368 63.0183 82.3017 62.6185 82.7648C62.4919 82.9098 62.3103 82.9098 62.2736 82.7648C62.2672 82.7183 62.2703 82.6709 62.2829 82.6256C62.2956 82.5803 62.3173 82.5381 62.3469 82.5016C62.7551 82.0018 63.1799 81.5286 63.5815 81.0371C63.7281 80.8705 63.863 80.7039 63.9996 80.5373C63.9417 80.4918 63.8861 80.4434 63.833 80.3923C63.7864 80.4556 63.7414 80.5006 63.7047 80.5473C63.1866 81.1471 62.6785 81.7469 62.1603 82.3467C62.0687 82.455 61.9687 82.5283 61.8421 82.42C61.7155 82.3117 61.7788 82.2017 61.8688 82.0867C62.3786 81.4869 62.8967 80.8872 63.4049 80.2874L63.5331 80.1324C63.4682 80.0791 63.4149 80.0325 63.3515 79.9875C63.0866 80.2957 62.8334 80.5956 62.5868 80.8872C62.2786 81.2504 61.9687 81.6136 61.6605 81.9685C61.646 81.994 61.6257 82.0157 61.6012 82.032C61.5768 82.0482 61.5489 82.0586 61.5198 82.0621C61.4906 82.0657 61.4611 82.0624 61.4334 82.0525C61.4058 82.0426 61.3809 82.0264 61.3606 82.0051C61.3412 81.9872 61.3257 81.9654 61.3151 81.9412C61.3045 81.9169 61.299 81.8908 61.299 81.8643C61.299 81.8379 61.3045 81.8117 61.3151 81.7875C61.3257 81.7632 61.3412 81.7415 61.3606 81.7235C61.3845 81.7016 61.4057 81.677 61.4239 81.6502C61.9237 81.0788 62.4052 80.5056 62.8867 79.9325C62.9417 79.8692 62.9967 79.7959 63.0533 79.7242C62.9952 79.6755 62.9346 79.6299 62.8717 79.5876C62.8392 79.622 62.8086 79.6581 62.7801 79.6959C62.2536 80.3057 61.7355 80.9138 61.2173 81.5286C61.1257 81.6286 61.0274 81.7285 60.8991 81.6186C60.7708 81.5086 60.8275 81.392 60.9174 81.2737C61.299 80.8372 61.6805 80.3923 62.0537 79.9408C62.2203 79.7409 62.3986 79.531 62.5802 79.3227C62.5085 79.2677 62.4535 79.2227 62.3986 79.1761C62.1087 79.5093 61.8354 79.8425 61.5539 80.1757C61.2723 80.509 60.9908 80.8422 60.7092 81.1671C60.6176 81.267 60.5176 81.3037 60.4093 81.2037C60.301 81.1038 60.336 81.0121 60.4093 80.9205C60.426 80.8938 60.4443 80.8755 60.4626 80.8488C60.8625 80.3857 61.254 79.9308 61.6438 79.4677C61.7988 79.2844 61.9454 79.1128 62.0987 78.9212C62.0407 78.8757 61.9851 78.8273 61.9321 78.7762C61.6772 79.0678 61.4323 79.3494 61.1957 79.6393C60.8775 80.0125 60.5592 80.3857 60.231 80.7572C60.1144 80.9038 59.9228 80.8855 59.8978 80.7306C59.8931 80.6847 59.8979 80.6384 59.9119 80.5945C59.926 80.5507 59.949 80.5102 59.9795 80.4756C60.3427 80.0308 60.7242 79.6026 61.0974 79.1578C61.264 78.9495 61.4506 78.7396 61.6338 78.5213L61.4672 78.3764C61.3306 78.5213 61.2123 78.6679 61.0857 78.8129C60.6575 79.321 60.2227 79.8309 59.7862 80.339C59.6946 80.449 59.5946 80.5056 59.4763 80.4023C59.358 80.299 59.4047 80.1857 59.4946 80.0858C59.5046 80.0758 59.513 80.0674 59.513 80.0574C59.8862 79.6209 60.2577 79.1944 60.6226 78.7579C60.8042 78.5496 60.9858 78.3397 61.1674 78.1131C61.1082 78.0685 61.0525 78.0195 61.0008 77.9665C60.9458 78.0215 60.9108 78.0665 60.8641 78.1131C60.356 78.7212 59.8379 79.321 59.328 79.9208C59.2381 80.0308 59.1381 80.1024 59.0115 79.9941C58.8849 79.8858 58.9465 79.7759 59.0282 79.6609L59.6829 78.8962C60.0161 78.5063 60.3493 78.1148 60.7009 77.7066L60.5193 77.5517C60.3527 77.7599 60.1744 77.9598 60.0194 78.1514C59.6279 78.6063 59.2364 79.0695 58.8532 79.5243C58.7349 79.6693 58.5533 79.6693 58.5083 79.5243C58.4966 79.4305 58.5223 79.3359 58.58 79.2611C58.9349 78.8329 59.2981 78.4064 59.6529 77.9882C59.8528 77.7599 60.0428 77.5333 60.2444 77.2967C60.1711 77.2434 60.1161 77.1968 60.0528 77.1518C59.508 77.8066 58.9715 78.433 58.435 79.0611C58.2801 79.2427 58.1618 79.2777 58.0718 79.1778C57.9252 79.0245 58.0435 78.9145 58.1435 78.8062C58.3101 78.5963 58.4983 78.388 58.6716 78.1881C59.0348 77.7599 59.398 77.3334 59.7712 76.8969C59.6979 76.8419 59.6429 76.7969 59.5896 76.7519C59.5346 76.8152 59.4797 76.8702 59.4347 76.9185C58.9349 77.5083 58.435 78.0998 57.9169 78.6896C57.8253 78.7996 57.7253 78.8812 57.5987 78.7629C57.4721 78.6446 57.5354 78.5446 57.6253 78.4297C57.8353 78.1931 58.0352 77.9565 58.2434 77.7116C58.59 77.3017 58.9348 76.8936 59.2897 76.4837C59.2264 76.4204 59.1714 76.3837 59.1231 76.3287C58.9782 76.4953 58.8332 76.662 58.6966 76.8286C58.2784 77.3284 57.8503 77.8282 57.4237 78.3097C57.3899 78.3409 57.3492 78.3637 57.3049 78.3765C57.2607 78.3892 57.2141 78.3914 57.1688 78.383C57.0505 78.3547 57.0322 78.2381 57.0872 78.1281C57.2028 77.8716 57.34 77.6252 57.4971 77.3917C57.742 77.0585 58.0235 76.7553 58.2968 76.437C58.66 76.0105 59.0232 75.574 59.3963 75.1558C59.8412 74.666 60.341 74.611 60.8858 74.9892C61.0029 75.0654 61.1143 75.15 61.219 75.2425C62.684 76.5542 64.1862 77.8654 65.7257 79.1761C67.0885 80.3424 68.488 81.4753 69.8058 82.6849C71.2503 84.0177 72.6964 85.3506 74.1376 86.6835C74.4824 86.9917 74.819 87.3099 75.1555 87.6281C76.0918 88.4829 77.0182 89.3459 77.9545 90.2089C78.231 90.4422 78.4959 90.6971 78.7675 90.942Z" fill="#F36E24"/>
<path id="Vector_24" d="M106.732 32.7438C105.756 30.143 103.85 28.9601 101.104 29.1451C100.01 29.215 98.9034 29.16 97.7955 29.16C97.7922 29.1001 97.7922 29.04 97.7955 28.9801H98.1187C100.533 29.0351 103.065 27.329 103.25 24.3151C103.388 22.0708 102.322 20.1498 100.265 19.3168C99.4316 18.9736 98.5519 18.9119 97.7405 19.4684C98.407 19.4134 99.0884 19.2135 99.7148 19.3451C101.318 19.6883 102.41 21.3944 102.287 23.1088C102.184 24.58 101.592 25.7496 100.196 26.376C99.1367 26.8442 97.2107 26.4177 96.426 25.5646C96.1295 25.2481 96.1578 24.8149 96.5776 24.6499C97.1474 24.4367 97.7605 24.3334 98.3586 24.1751C98.8951 24.0302 99.4399 23.8786 100.071 23.7069C99.7764 22.4757 98.8618 21.9942 98.0721 21.491C97.9055 20.8246 97.7689 20.2115 97.6306 19.5934C97.5623 19.5167 97.4806 19.4484 97.419 19.3651C97.0781 18.8632 96.6197 18.4524 96.0836 18.1684C95.5475 17.8843 94.9501 17.7358 94.3435 17.7357C93.175 17.6867 92.0283 18.0632 91.1163 18.7953C91.5228 17.4474 91.4674 16.0024 90.9588 14.6896C90.4502 13.3768 89.5176 12.2716 88.309 11.5495C85.4451 9.86675 81.6615 10.6998 79.5973 13.4788C79.454 13.6721 79.2957 13.8587 79.1441 14.0436C79.1955 13.8083 79.2738 13.5797 79.3773 13.3622C80.0521 11.6145 79.5006 9.88841 78.0012 9.05537C76.4401 8.20233 74.4042 8.89709 73.6528 10.15C73.538 10.3014 73.3723 10.4062 73.1863 10.4449C72.1693 10.6861 71.2687 11.2755 70.6406 12.111C70.1041 12.8057 69.6409 13.5621 69.1411 14.2769C69.1411 14.2769 69.1195 14.2769 69.1261 14.2569C69.2161 14.0436 69.3261 13.8437 69.4027 13.6238C69.8692 12.4275 69.7359 11.2913 68.9412 10.2599C68.6834 9.91822 68.3534 9.63753 67.9748 9.43785C67.5962 9.23818 67.1782 9.12443 66.7506 9.1047C66.323 9.08498 65.8963 9.15976 65.5009 9.32373C65.1054 9.48769 64.751 9.73681 64.4629 10.0534C63.4233 11.2096 63.9331 13.1356 65.3559 13.4522C65.5404 13.4944 65.7321 13.4955 65.9171 13.4553C66.1022 13.4151 66.2761 13.3347 66.4265 13.2197C66.577 13.1047 66.7003 12.958 66.7876 12.79C66.875 12.622 66.9242 12.4368 66.9319 12.2476C66.7316 12.1616 66.5269 12.086 66.3188 12.021C66.0992 11.976 65.8764 11.9482 65.6524 11.9377C65.5075 11.4912 65.4858 11.0513 65.8723 10.8447C66.2156 10.6476 66.6162 10.5746 67.0069 10.6382C67.71 10.8048 68.0665 11.6278 67.8883 12.4059C67.7952 12.807 67.5886 13.1729 67.2932 13.4598C66.9977 13.7467 66.6259 13.9425 66.2222 14.0236C65.1626 14.2086 64.7228 14.0086 64.1513 13.074C62.9201 11.058 61.474 10.4865 59.5613 10.7681C56.954 11.1396 55.3962 12.8457 54.5632 15.2482C54.1178 16.4731 54.1083 17.8142 54.5365 19.0452C54.4115 18.8925 54.3 18.7292 54.2033 18.5571C53.0954 16.781 51.6709 15.4531 49.4834 15.1649C47.5008 14.91 45.8181 15.4465 44.6952 17.1392C43.5723 18.832 43.5106 20.638 44.5919 22.4091C44.6535 22.5057 44.6952 22.6157 44.7585 22.7539C44.5919 22.7673 44.4969 22.7739 44.3936 22.7889C43.0391 22.9555 41.8945 24.0268 41.7446 25.3264C41.703 25.6913 41.5513 25.8562 41.2448 26.0361C40.4867 26.476 39.8137 27.0125 39.7104 27.9821C40.1919 28.402 40.7483 28.3953 41.2998 28.382C41.6913 28.382 42.0828 28.3337 42.466 28.3603C42.9542 28.3886 43.2224 28.7469 43.1874 29.2617C42.8775 29.5516 42.5826 29.8615 42.2594 30.123C40.9382 31.2093 39.0939 30.9561 38.1509 29.5449C37.8338 29.08 37.6173 28.554 37.5155 28.0005C37.4136 27.447 37.4286 26.8784 37.5595 26.331C37.876 24.8582 39.0456 23.9652 40.5317 24.0885C40.8766 24.1085 41.2065 24.2551 41.6397 24.37C40.5317 23.6486 39.004 23.8552 37.966 24.7899C35.9018 26.6692 36.115 30.3146 38.3859 32.0207C39.2572 32.6621 40.2923 33.0439 41.3714 33.122C40.6483 33.2736 39.9336 33.3902 39.2189 33.4802C37.7944 33.6468 36.6582 34.2849 35.8668 35.5028C35.3056 36.3475 34.9564 37.3151 34.8488 38.3235C34.6089 40.676 35.0354 42.782 36.9814 44.3648C36.3016 45.7876 36.5415 47.0605 37.5745 48.1751C36.8164 50.0195 37.0647 51.5073 38.3026 52.6002C38.6256 52.8979 39.0056 53.127 39.4197 53.2736C39.8338 53.4202 40.2733 53.4813 40.7117 53.4533C41.5882 53.4099 42.4253 53.0758 43.0908 52.5036C43.0489 52.8142 42.9202 53.1068 42.7195 53.3476C42.5188 53.5883 42.2542 53.7676 41.9562 53.8648C41.6946 53.9681 41.4331 54.0931 41.1782 54.2097C39.4938 55.0077 38.5441 56.3223 38.3459 58.18C38.2076 59.4045 38.7374 60.8357 39.6254 61.5371C39.5221 61.3372 39.4338 61.2139 39.3705 61.069C38.7857 59.7827 38.6758 58.4815 39.4738 57.2503C40.0652 56.3139 40.9949 55.9907 42.0678 56.149C42.9975 56.2806 43.5273 56.9471 43.9805 57.7118C43.3903 57.6621 42.8042 57.5725 42.2261 57.4436C41.7379 57.3469 41.3181 57.4436 41.0215 57.9034C40.725 58.3632 40.775 58.7648 41.0215 59.2046C41.4964 60.016 42.4044 60.5192 43.3124 60.3126C44.0621 60.1326 44.7702 59.7677 45.4866 59.4795C46.0014 59.2729 46.5178 59.0663 47.0343 58.8531C47.0467 58.8982 47.0629 58.9422 47.0826 58.9847C46.8277 59.1146 46.5728 59.2246 46.3312 59.3695C45.1483 60.0843 44.6402 61.2139 44.9568 62.4452C45.245 63.5798 46.3796 64.4261 47.6607 64.4811C48.892 64.5428 49.8883 64.0613 50.7763 63.2432C50.6683 63.4627 50.5488 63.6763 50.4181 63.883C49.7716 65.1142 49.6617 66.3588 50.4464 67.57C50.9895 68.4164 51.7792 68.8496 52.7988 68.7363C53.7685 68.6263 54.4233 68.0549 54.7598 67.1468C54.8981 66.8036 55.0014 66.4454 55.138 66.0389C55.4345 67.2918 56.1493 68.1732 57.0789 68.9779C57.009 68.5514 56.9473 68.1865 56.8657 67.67C57.7187 68.7013 58.6683 69.1695 59.8379 69.2045C60.9792 69.2461 61.9838 68.8596 63.0151 68.1798C63.085 70.0125 63.1467 71.7219 63.2083 73.4913C65.2442 73.9795 67.2952 74.4676 69.2428 74.9358C70.9821 72.9365 72.6065 70.9239 74.3892 69.0728C76.1719 67.2218 78.1111 65.5091 80.0438 63.6797C79.6852 66.9471 79.6941 70.2443 80.0704 73.5096L80.6085 73.0765C80.7385 71.5287 80.8618 69.9725 80.9934 68.4114C82.2179 69.3478 83.4925 69.5127 84.8603 69.0995C86.2281 68.6863 87.1161 67.7666 87.6526 66.4338C87.7559 66.5087 87.8392 66.5504 87.9008 66.6004C88.3136 66.9537 88.7924 67.2213 89.3096 67.3878C89.8267 67.5542 90.3718 67.6162 90.9131 67.57C92.4758 67.4734 93.817 66.3671 94.0369 64.921C94.0852 64.6044 94.0169 64.2678 94.0036 63.9213C95.7579 63.2332 95.7429 61.7387 95.703 60.2192C96.2328 61.6637 97.0158 62.2835 98.2953 62.2352C98.7966 62.2081 99.277 62.026 99.6703 61.7142C100.064 61.4023 100.35 60.976 100.491 60.4942C100.834 59.2696 100.278 58.2383 98.6818 57.1986C98.7018 56.9787 98.7152 56.7371 98.7302 56.4422C98.9084 56.5305 99.0184 56.5788 99.1284 56.6272C100.285 57.1503 101.461 57.2403 102.644 56.7238C104.261 56.0224 105.143 54.5229 105.108 52.6036C105.108 52.362 105.141 52.0388 105.293 51.8872C107.219 49.9262 106.001 46.5956 103.732 45.9226C103.27 45.7909 102.795 45.716 102.301 45.5993C102.224 45.4127 102.156 45.2128 102.074 44.9862C103.312 44.7046 104.275 44.1065 104.95 43.0952C105.644 42.0556 105.651 40.8926 105.431 39.8747C105.898 39.1666 106.366 38.6218 106.669 37.9903C107.51 36.2592 107.399 34.4982 106.732 32.7438ZM94.9032 19.7067C95.7779 19.74 96.4244 20.3181 96.7126 21.2611C96.8309 21.6327 96.7476 21.8726 96.3211 22.0658C95.5647 21.2878 94.6284 20.9162 93.5754 20.7996C93.867 20.0299 94.3235 19.6783 94.9049 19.7067H94.9032ZM96.1361 22.1342C95.9845 22.3691 95.8196 22.609 95.6363 22.8772C95.3258 22.7222 95.0039 22.5913 94.6733 22.4857C94.2944 22.398 93.9105 22.3335 93.5238 22.2924C93.4771 21.9142 93.4221 21.5427 93.3738 21.1712C94.1352 20.8829 95.3531 21.3228 96.1378 22.1342H96.1361ZM84.7354 13.2939C85.452 13.1889 86.1837 13.2978 86.8386 13.6069C87.4936 13.9161 88.0428 14.4117 88.4173 15.0316C89.332 16.5644 89.1187 18.5604 87.7776 20.2731C88.2874 18.8636 88.2774 17.6241 87.6809 16.4061C86.4497 13.917 83.1343 14.047 82.0164 15.9063C81.9715 15.9667 81.9207 16.0226 81.8647 16.0729C82.0005 15.3709 82.3489 14.7277 82.8627 14.2306C83.3766 13.7334 84.031 13.4064 84.737 13.2939H84.7354ZM83.4025 18.757C85.7616 19.6234 87.2961 21.3161 87.5377 23.9035C87.7576 26.291 86.2581 28.2853 83.884 28.9318C86.4564 27.5706 86.6913 23.477 83.884 21.2961C81.6332 19.5551 78.0428 19.4234 75.9786 21.8459C75.9233 21.9215 75.843 21.9752 75.752 21.9975C76.0188 21.2605 76.4601 20.5991 77.0382 20.0699C78.8759 18.3438 81.0501 17.8973 83.4025 18.757ZM85.1019 34.2516C83.9257 32.9037 82.198 32.5255 80.2787 33.2819C81.0351 32.1473 82.5911 31.6375 84.0289 32.0024C85.5284 32.3806 86.7529 33.7085 86.9379 35.2163C87.1178 36.6325 86.463 37.982 85.2052 38.6284C85.7966 37.927 86.0382 37.1973 85.9816 36.3775C85.9307 35.5928 85.6214 34.847 85.1019 34.2566V34.2516ZM77.2381 27.7439C76.4334 26.7592 75.4355 26.0778 74.0726 25.9961C75.6754 25.3297 77.8296 26.0861 78.6826 27.8122C79.0209 28.5108 79.0774 29.3128 78.8404 30.052C78.6034 30.7911 78.0911 31.4108 77.4097 31.7825C78.386 30.4879 78.3111 29.0484 77.2381 27.7489V27.7439ZM75.8003 10.4332C76.3359 10.2748 76.9123 10.3351 77.4035 10.6008C77.8947 10.8665 78.2606 11.3161 78.421 11.8511C78.6076 12.5042 78.456 12.924 77.8562 13.3505C77.9529 13.069 78.1461 12.7807 78.1178 12.5042C78.0761 12.1939 77.9366 11.9051 77.7196 11.6795C77.2581 11.2046 76.3368 11.1363 75.7204 11.4595C75.1039 11.7828 74.8057 12.4292 74.929 13.1789C75.1089 14.2586 75.7004 15.0233 76.8016 15.4831C75.3022 15.4831 74.111 14.4652 73.926 13.1106C73.7561 11.9177 74.5541 10.7764 75.8003 10.4382V10.4332ZM72.6831 27.7772C73.4679 28.9251 73.3496 30.1097 72.4432 30.9761C72.4766 30.4763 72.6632 29.8465 72.5382 29.2767C72.305 28.1337 71.2054 27.419 69.7592 27.4057C68.1915 27.3707 66.822 27.8455 65.8857 29.215C65.844 29.2617 65.7974 29.3183 65.7491 29.365C65.7341 29.38 65.7141 29.3733 65.7007 29.38C65.8857 27.9271 67.0219 26.7575 68.618 26.381C70.2824 25.9945 71.8318 26.5176 72.6831 27.7772ZM67.2352 17.4475C68.7829 17.5308 70.2207 18.9469 70.2341 20.4614C69.4427 19.1818 68.3831 18.4321 66.8353 18.707C65.4325 18.9536 64.6128 19.8733 64.2896 21.2061C63.9664 22.5607 64.6761 23.5037 65.7491 24.2534C64.3512 23.9918 63.065 22.1825 63.2366 20.7313C63.4716 18.7287 65.1676 17.3392 67.2352 17.4425V17.4475ZM57.802 14.6751C57.9621 14.0674 58.3282 13.5342 58.8378 13.1665C59.3474 12.7988 59.9688 12.6195 60.596 12.6591C62.1154 12.7624 63.2433 13.7871 63.3399 15.1366C63.3949 15.9196 63.3133 16.3028 62.9834 16.8277C62.9284 16.3278 62.9351 15.7897 62.7901 15.2949C62.7059 14.9898 62.5589 14.7056 62.3586 14.4606C62.1583 14.2155 61.909 14.015 61.6267 13.8718C61.3444 13.7286 61.0354 13.646 60.7193 13.6291C60.4033 13.6122 60.0872 13.6615 59.7913 13.7737C59.4877 13.8605 59.2192 14.0409 59.0241 14.2892C58.8291 14.5375 58.7174 14.8411 58.705 15.1566C58.6434 15.893 58.9532 16.3745 59.7646 16.8227C58.5034 17.0093 57.5537 15.7297 57.802 14.6701V14.6751ZM48.3622 17.1376C48.7097 17.1309 49.0551 17.1933 49.3783 17.3212C49.7016 17.449 49.9963 17.6397 50.2453 17.8822C50.4943 18.1247 50.6927 18.4142 50.8291 18.734C50.9654 19.0538 51.0369 19.3974 51.0395 19.745C51.0395 21.2245 49.8483 22.3674 48.2739 22.3674C46.7661 22.3674 45.5832 21.2245 45.5965 19.7866C45.5965 18.3022 46.8144 17.1459 48.3622 17.1326V17.1376ZM46.5945 26.0778C45.8031 26.5176 45.075 26.9441 44.3586 27.349C44.192 27.1357 43.9804 26.8825 43.7389 26.5859C44.4389 25.8609 45.3247 25.3421 46.2996 25.0865C46.4162 25.478 46.5078 25.7945 46.5945 26.0778ZM42.8459 26.0011C42.8979 25.5935 43.0755 25.2122 43.354 24.91C43.6326 24.6079 43.9982 24.4 44.4003 24.3151C45.0467 24.1485 45.6382 24.2751 46.0164 24.8599C45.17 25.3747 44.332 25.8779 43.389 26.456C43.2374 26.331 43.0241 26.1528 42.8425 26.0011H42.8459ZM38.2226 45.3694C38.4975 44.7846 39.1023 44.4881 39.867 44.5714C40.5201 44.6397 41.0982 45.1145 41.1998 45.6926C41.2681 46.1525 41.2615 46.614 40.6833 46.8889C40.7167 45.6377 40.4151 45.2111 39.5887 45.2228C38.839 45.2428 38.5891 45.6693 38.6391 46.7839C38.071 46.2974 37.9677 45.9259 38.2226 45.3694ZM41.7446 50.8942C41.3248 51.5056 40.3201 51.7805 39.5904 51.444C38.8274 51.0924 38.4425 50.4676 38.3392 49.6613C38.3214 49.3133 38.3214 48.9646 38.3392 48.6166C38.7159 48.7813 39.1249 48.8587 39.5357 48.8432C39.9465 48.8276 40.3485 48.7194 40.7117 48.5266C40.6017 48.9465 40.4984 49.3447 40.3951 49.7512C40.4434 49.7646 40.4917 49.7862 40.5401 49.7995C40.6567 49.3314 40.63 48.7599 41.2281 48.6433C41.2764 48.6849 41.3248 48.7266 41.3797 48.7682C41.2015 48.8632 41.0215 48.9532 40.8499 49.0498L40.9466 49.1664L41.483 49.0365C41.9995 49.5863 42.1095 50.3527 41.7446 50.8942ZM39.2539 37.3988C38.0293 37.7554 37.1213 38.8567 37.038 40.0463C36.9564 41.3408 37.6511 42.4554 38.8957 42.9986C39.0473 43.0735 39.2056 43.1352 39.4188 43.2252C38.2076 43.4517 36.7981 42.5504 36.3166 41.3058C35.7035 39.7447 36.2883 37.832 37.6495 36.9573C39.0106 36.0826 41.3148 36.4142 42.6309 37.7904C41.483 37.1606 40.3884 37.0506 39.2539 37.3955V37.3988ZM44.5519 33.077C43.6706 35.1213 44.2354 36.5758 46.5812 38.1886C44.7918 37.8254 43.3207 36.3176 43.0525 34.6398C42.7909 33.0437 43.6706 31.351 45.1983 30.5046C46.5195 29.7815 48.4655 29.9748 49.6017 30.9578C46.9877 30.3913 45.4382 31.0444 44.5519 33.0737V33.077ZM47.1926 63.0983C46.6928 63.0983 46.2446 62.5834 46.2363 62.0186C46.2333 61.77 46.3246 61.5296 46.4919 61.3456C46.6591 61.1617 46.8899 61.0479 47.1376 61.0273C47.7224 61.0273 48.1489 61.4472 48.1639 62.0669C48.1726 62.1996 48.1539 62.3326 48.1089 62.4576C48.064 62.5827 47.9938 62.6972 47.9026 62.7939C47.8115 62.8907 47.7014 62.9677 47.5793 63.02C47.4571 63.0724 47.3255 63.099 47.1926 63.0983ZM49.615 59.163C49.0652 58.4415 48.9819 57.5802 49.4284 56.6938C49.3051 58.165 49.9666 59.1213 51.1361 59.7894C50.543 59.9277 50.0415 59.7144 49.615 59.163ZM52.3673 23.8419C54.3766 20.8896 58.9516 20.8346 60.9808 23.7386C61.2892 24.2117 61.5409 24.7194 61.7305 25.2514C60.8292 24.1784 59.7496 23.4837 58.3518 23.2838C57.0021 23.0807 55.6265 23.4144 54.5199 24.2134C52.9455 25.313 51.9125 27.4323 52.9854 29.4216C51.3144 27.7972 51.1145 25.6846 52.3673 23.8486V23.8419ZM58.9166 36.9607C57.0839 36.1276 56.3575 34.2949 57.1972 32.7238C57.9736 31.286 59.8312 30.6312 61.1524 31.4159C59.543 31.306 58.5251 32.049 57.9869 33.4452C57.4588 34.8214 57.857 35.9843 58.9166 36.9673V36.9607ZM54.2866 41.0226C53.1521 40.1762 52.8838 38.82 53.5436 37.5954C54.2033 36.3709 55.4695 35.911 56.839 36.4292C55.8229 36.6461 54.9316 37.251 54.3549 38.1153C53.7502 39.0316 53.6185 39.9813 54.2866 41.0226ZM52.5806 67.9832C52.1124 67.9699 51.6926 67.4751 51.6993 66.9586C51.7001 66.8402 51.7243 66.7232 51.7704 66.6142C51.8165 66.5051 51.8836 66.4062 51.968 66.3232C52.0523 66.2401 52.1521 66.1744 52.2618 66.1299C52.3715 66.0855 52.4889 66.063 52.6073 66.0639C52.7359 66.0651 52.8629 66.0922 52.9809 66.1435C53.0988 66.1948 53.2052 66.2693 53.2938 66.3625C53.3824 66.4558 53.4514 66.5659 53.4965 66.6863C53.5417 66.8068 53.5623 66.935 53.5569 67.0635C53.5397 67.3116 53.4297 67.544 53.2487 67.7144C53.0678 67.8849 52.8292 67.9809 52.5806 67.9832ZM52.5673 54.5262C52.0091 54.1547 51.8575 53.5899 51.9125 52.8335C52.5789 54.0381 53.1787 54.4579 54.4582 54.6845C54.1592 54.8354 53.8242 54.9005 53.4904 54.8726C53.1566 54.8446 52.8371 54.7248 52.5673 54.5262ZM53.172 44.5214C52.5873 45.6626 52.6489 46.7639 53.6402 47.8086C52.2224 47.0655 51.7476 45.2844 52.4906 43.8883C53.172 42.6087 54.6565 42.1339 56.0743 42.8619C54.6365 42.7537 53.7435 43.4084 53.172 44.5214ZM57.5538 66.4638C58.3185 66.8819 59.0682 67.0269 59.9279 66.6687C59.1232 67.5567 58.0219 67.4534 57.5538 66.4638ZM61.4756 59.8577C61.2291 60.8207 60.541 61.3988 59.5563 61.5705C58.2768 61.7987 57.2655 61.3505 56.6674 60.3609C55.7044 58.7781 56.3342 56.5072 58.0286 55.5642C58.3393 55.4045 58.6585 55.2621 58.9849 55.1377C58.2901 56.1223 57.712 57.0853 57.7537 58.3032C57.7887 59.1213 58.3118 59.7827 59.0132 59.8644C59.7429 59.9477 60.5676 59.3646 60.6443 58.5582C60.7326 57.6285 60.6643 56.6871 60.7192 55.7375C61.1691 57.0787 61.8355 58.3866 61.4756 59.8577ZM77.1765 63.0566C76.0103 63.6347 74.789 64.0896 73.4679 64.1246C70.7022 64.2062 68.6796 62.83 67.1169 60.7107C66.4471 59.7712 65.8822 58.7611 65.4325 57.6985C64.6411 55.9024 63.7665 54.1614 62.6319 52.5519C61.9143 51.5521 61.4366 50.4006 61.2357 49.1864C61.0008 47.7219 62.1021 46.2841 63.4716 46.3041C63.4499 46.3941 63.4366 46.4907 63.4299 46.5173L64.2346 46.634C64.3545 46.5958 64.4719 46.5501 64.5862 46.4974C64.6611 46.6073 64.7378 46.6973 64.8061 46.7923C65.7007 46.5307 66.5954 46.2624 67.4817 46.0009C66.3955 45.9609 65.2876 46.2225 64.3312 45.4094C64.3579 45.3211 64.3796 45.2428 64.4062 45.1628C64.4329 45.0828 64.4895 44.9962 64.5512 44.8796C64.8261 45.3794 65.1776 45.7809 65.7624 45.7476C66.2855 45.7126 66.8003 45.5677 67.4751 45.4511C67.2552 45.3544 67.1802 45.3211 67.0769 45.2844C67.2268 44.9879 67.3784 44.6996 67.5584 44.3631C68.0182 44.7196 68.638 44.7896 68.9679 45.2978C69.2428 45.3461 69.511 45.4011 69.8009 45.4494C68.3697 43.3435 66.3888 42.7453 63.9047 43.2618C64.1596 42.7103 64.5795 42.5604 64.9993 42.4704C66.5404 42.1372 67.8533 42.4704 68.7763 43.8666C68.9223 44.082 69.0831 44.2868 69.2577 44.4797C69.0712 43.4268 67.805 42.1472 66.6154 41.8723C65.2826 41.5624 64.3862 42.3055 63.5882 43.2818C63.5599 43.1718 63.5332 43.0752 63.5332 43.0619C63.1617 43.2818 62.7702 43.5167 62.3436 43.7566C62.1854 41.7573 62.6769 40.9093 64.3312 40.3028C65.1643 40.0079 66.0106 40.2895 66.8303 40.5378C67.65 40.786 68.5364 41.0259 69.3894 41.2325C69.6726 41.2942 69.9742 41.2325 70.3257 41.2325C70.2024 40.5094 69.9408 39.9463 69.411 39.733C68.3681 39.2955 67.2851 38.9607 66.1772 38.7334C64.7794 38.4851 63.7215 39.2482 62.8201 40.2329C62.5519 40.5294 62.297 40.846 61.9738 41.2325C62.7018 38.3768 63.973 35.9893 66.4105 34.2216C66.6587 34.5865 66.8786 34.9031 67.1202 35.2679C67.6017 35.1296 67.6767 34.7031 67.6833 34.2283C68.3231 34.3732 68.7913 35.0263 68.8196 35.8527C69.3894 36.0027 69.431 35.5362 69.5693 35.1863C70.249 35.3246 70.5939 35.8261 70.6006 36.5758C70.7672 36.7691 70.8755 36.899 71.0621 37.1123C71.2687 36.844 71.4819 36.5558 71.7768 36.1559C72.0003 36.3122 72.2119 36.4849 72.4099 36.6724C72.5594 36.8698 72.6841 37.0846 72.7814 37.3122C73.3179 38.3718 73.8277 38.4552 74.6941 37.6221C75.2589 38.7167 75.8603 38.985 77.0682 38.6684C77.6246 38.5235 78.1678 38.3652 78.7192 38.2352C79.066 38.1458 79.4293 38.1422 79.7777 38.225C80.1261 38.3077 80.449 38.4742 80.7185 38.7101C81.7514 39.5439 82.4382 40.7312 82.6461 42.0422C82.1319 41.008 81.3917 40.1026 80.4803 39.3932C80.073 39.0706 79.5946 38.8499 79.0849 38.7494C78.5753 38.6488 78.0489 38.6713 77.5497 38.815C76.7779 39.0207 76.0195 39.2739 75.2789 39.5731C74.6124 39.848 74.2259 40.3845 73.9993 41.2309C74.6174 41.1825 75.1756 41.1959 75.712 41.0859C76.3871 40.9305 77.0493 40.7239 77.693 40.4678C78.9592 39.9996 80.1021 40.1912 81.1617 40.9893C82.2829 41.8223 83.1609 42.7986 83.1359 44.4431C82.6061 44.1199 82.1363 43.8316 81.6365 43.5284V43.1885C81.5265 43.2701 81.4382 43.3318 81.2933 43.4284C81.2033 43.1802 81.1483 42.9952 81.08 42.802C81.0569 42.808 81.0341 42.8152 81.0117 42.8236C81.0117 42.9669 81.0251 43.1185 81.0517 43.4151C80.0621 42.3205 79.0525 41.4258 77.553 41.9489C76.4668 42.3271 75.7104 43.1052 75.2205 44.1715C75.9903 42.9886 77.0015 42.2588 78.481 42.3388C79.2724 42.3871 80.0221 42.5454 80.6819 43.2951C78.1228 42.7803 75.9903 43.1852 74.5175 45.4611C75.2055 45.1445 75.8936 44.8213 76.6034 44.4914C76.7466 44.7246 76.8849 44.9596 77.0299 45.2061C76.9332 45.2761 76.8633 45.3311 76.7683 45.3994C78.7776 45.9292 79.2041 45.8259 79.6856 44.6147C79.8522 44.8496 79.9804 45.0412 80.1521 45.2811C79.1624 46.3124 77.9645 45.9475 76.8016 45.9959C77.7379 46.2708 78.6676 46.5457 79.6156 46.8289C79.8222 46.3058 80.1254 46.6623 80.3936 46.6623C80.6902 46.6073 80.9851 46.5457 81.2816 46.484C81.2657 46.465 81.2517 46.4443 81.24 46.4224C81.4332 46.3257 81.6182 46.2158 81.8797 46.0708L81.4882 45.721C82.0513 45.4594 82.6545 45.1845 83.2626 44.9012C83.7757 47.3256 83.7825 49.8299 83.2826 52.257C82.9493 53.8931 82.5478 55.5109 82.183 57.142C81.5249 59.9543 79.7072 61.812 77.1765 63.0566ZM85.4734 67.555C84.8336 67.665 84.2422 67.5967 83.8074 66.9702C85.0519 67.2735 85.9882 66.9836 86.8063 65.9939C86.6596 66.847 86.1482 67.4334 85.4734 67.55V67.555ZM87.2894 60.7857C86.8937 61.1961 86.3833 61.4775 85.8251 61.5931C85.2669 61.7088 84.6867 61.6532 84.1606 61.4338C83.1293 61.0273 82.5712 60.1676 82.5578 58.9714C82.5578 57.8901 82.8261 56.7138 83.4175 55.3926C83.4175 56.3489 83.4042 57.1603 83.4175 57.98C83.4284 58.1762 83.4631 58.3703 83.5208 58.5582C83.7757 59.4728 84.4971 60.0093 85.2552 59.8377C86.0732 59.6711 86.6163 58.8381 86.493 57.9317C86.354 56.9018 85.8866 55.9442 85.1602 55.201C85.9932 55.241 87.0662 56.034 87.596 56.9954C88.3007 58.2966 88.1841 59.8161 87.2894 60.7807V60.7857ZM89.367 47.8535C90.4399 46.7806 90.5582 45.5627 89.7935 44.3381C89.0854 43.2168 88.0325 42.672 86.628 42.9619C87.9292 42.1155 89.6085 42.5554 90.4399 43.9183C91.2996 45.3344 90.8597 47.0205 89.367 47.8535ZM90.6265 34.953C92.959 34.1 94.0119 32.9304 93.867 31.2876C93.6737 29.1484 92.4358 27.9105 90.0001 27.5256C90.8412 27.2523 91.7509 27.2776 92.5756 27.5972C93.4003 27.9168 94.0894 28.5112 94.5267 29.28C95.3731 30.7928 95.0265 32.5055 93.6537 33.6901C92.7993 34.4124 91.7413 34.8508 90.6265 34.9447V34.953ZM92.016 66.0139C91.8863 66.01 91.7587 65.9806 91.6404 65.9273C91.5221 65.874 91.4154 65.7979 91.3266 65.7034C91.2378 65.6088 91.1685 65.4976 91.1227 65.3762C91.0769 65.2548 91.0555 65.1256 91.0597 64.9959C91.0597 64.3495 91.4995 63.8813 92.091 63.9013C92.6274 63.9013 93.0406 64.3895 93.0339 64.9893C93.0201 65.2554 92.9085 65.507 92.7207 65.6961C92.5329 65.8851 92.282 65.9983 92.016 66.0139ZM94.1819 53.3C93.682 53.8698 92.849 53.9948 91.911 53.5616C92.2593 53.5777 92.6066 53.5149 92.9271 53.3779C93.2477 53.2408 93.5331 53.0331 93.762 52.7702C94.2235 52.2604 94.3801 51.6339 94.2435 50.8992C94.7883 51.7539 94.7533 52.6402 94.1835 53.295L94.1819 53.3ZM99.21 60.2492C99.1978 60.5171 99.0859 60.7707 98.8964 60.9603C98.7068 61.1498 98.4532 61.2617 98.1854 61.2739C97.6689 61.2606 97.2907 60.8124 97.3124 60.2209C97.3162 59.9703 97.4175 59.7309 97.5948 59.5537C97.772 59.3764 98.0114 59.2751 98.262 59.2713C98.5107 59.2924 98.7436 59.4023 98.9179 59.581C99.0923 59.7596 99.1966 59.9951 99.2117 60.2442L99.21 60.2492ZM97.8138 49.4197C98.4803 47.8852 98.262 46.5707 97.2357 45.6826C96.3894 44.9479 94.7366 44.3964 93.4171 45.4011C93.817 44.5897 95.0832 43.9699 96.1495 44.0682C96.7819 44.1231 97.3824 44.37 97.8705 44.7759C98.3586 45.1818 98.7109 45.7272 98.8801 46.3391C99.0377 46.8985 99.0208 47.4926 98.8318 48.0422C98.6427 48.5918 98.2905 49.0706 97.8222 49.4147L97.8138 49.4197ZM103.009 54.9511C102.046 55.1577 100.999 54.3446 100.579 53.0101C101.859 53.5332 103.057 53.4033 104.213 52.6935C104.31 53.7482 103.74 54.7878 103.01 54.9461L103.009 54.9511ZM100.959 50.5193V49.7146C102.041 49.6396 102.872 50.0378 103.588 50.7259C103.567 50.7875 103.56 50.8508 103.54 50.9058C102.694 50.7759 101.854 50.6526 100.959 50.5193ZM102.755 47.617C103.081 47.5718 103.413 47.6298 103.704 47.7827C103.996 47.9357 104.232 48.176 104.38 48.47C104.751 49.1914 104.593 49.8112 103.947 50.4443C102.947 50.0378 102.054 49.6663 101.114 49.2781C101.195 48.8701 101.393 48.4948 101.685 48.1986C101.976 47.9024 102.349 47.6984 102.755 47.612V47.617ZM103.34 42.6354C103.898 40.9693 103.622 39.918 102.467 39.1949C101.214 38.4118 99.6348 38.7484 98.1937 40.1029C98.5652 38.7967 99.5699 38.012 100.953 37.937C101.597 37.9001 102.236 38.0663 102.78 38.4121C103.324 38.758 103.746 39.2661 103.987 39.8647C104.428 40.9859 104.221 41.8873 103.34 42.6304V42.6354ZM103.657 37.902C103.698 37.7704 103.692 37.6054 103.767 37.5171C104.558 36.5941 104.71 35.5628 104.206 34.4832C103.692 33.3752 102.775 32.7621 101.541 32.6105C101.041 32.5316 100.53 32.5621 100.043 32.6999C99.5559 32.8377 99.1046 33.0795 98.7202 33.4086C99.305 32.1707 100.819 31.5376 102.181 31.6542C103.542 31.7708 104.858 32.8588 105.201 34.1666C105.604 35.7094 105.081 37.1406 103.653 37.897L103.657 37.902Z" fill="#F36E24"/>
<path id="Vector_25" d="M75.4971 57.3767C75.6637 57.1185 75.7503 56.9802 75.852 56.8302C75.6854 56.7219 75.5338 56.632 75.3955 56.5487C74.1159 57.3817 73.7911 57.5483 72.6798 57.6783C71.4553 57.8149 70.1391 57.635 69.7192 56.3021H69.2194L69.2011 56.1355C69.7309 56.0455 70.259 55.9005 70.7938 55.8772C72.4599 55.7989 74.1393 55.649 75.7553 56.2671C76.6083 56.6003 76.7766 56.5187 77.2265 55.5707C76.5067 54.8609 75.7603 54.1228 75.0106 53.3964C74.3442 52.7533 73.5695 52.5434 72.6565 52.8483C72.3897 52.951 72.0959 52.9598 71.8235 52.8733C70.7655 52.4651 69.8958 52.8183 69.1211 53.4914C68.3464 54.1645 67.6783 54.8609 66.9636 55.5457C66.9519 56.1821 67.4151 56.4237 68.0565 56.652C67.7233 56.6819 67.5567 56.6936 67.2402 56.7169C67.775 57.54 68.2198 58.2847 68.7246 58.9878C69.2761 59.7509 70.0574 59.9608 70.9821 59.8592C71.7152 59.7809 72.4665 59.8708 73.2046 59.8342C73.6911 59.8109 74.2376 59.8342 74.6407 59.6059C75.7936 58.9761 76.2618 57.7732 76.9832 56.592C76.6912 56.671 76.4041 56.7672 76.1235 56.8802C75.9028 57.0301 75.6935 57.1961 75.4971 57.3767ZM71.4986 53.2115C71.7414 53.3238 72.0074 53.377 72.2747 53.3666C72.542 53.3561 72.803 53.2824 73.0363 53.1515C73.0827 53.1282 73.1305 53.1082 73.1796 53.0915C73.7211 52.9116 74.4708 53.1398 74.5008 53.5414C74.5375 54.0762 74.0626 54.2211 73.6678 54.3594C73.4376 54.4537 73.1856 54.4816 72.9403 54.4401C72.6951 54.3986 72.4663 54.2893 72.28 54.1245C71.8651 53.7763 71.3969 53.4947 70.8388 53.0915C71.0644 53.1116 71.2879 53.1507 71.5069 53.2082L71.4986 53.2115Z" fill="#F36E24"/>
<path id="Vector_26" d="M69.0495 50.4307C69.5343 49.4511 71.0254 48.5597 72.1 49.9176C73.5278 48.9713 74.5607 49.1945 74.9956 50.5557L75.757 50.1875C75.807 50.8256 75.5737 51.2621 75.1439 51.4088C74.6091 51.5937 74.2109 51.3921 73.796 50.684L72.7964 50.789C72.8547 51.0272 72.898 51.2072 72.938 51.3738C72.4948 51.9119 71.5419 51.9236 71.0837 51.4937C70.6739 51.1122 70.3173 51.1605 69.8792 51.3271C68.8795 51.6903 68.2964 51.2421 68.3664 50.0742L69.0495 50.4307Z" fill="#F36E24"/>
<path id="Vector_27" d="M125.795 72.8765C125.72 78.4468 124.774 83.9712 122.991 89.2491C122.98 89.2831 122.966 89.3165 122.951 89.3491C122.695 90.1188 122.431 90.8252 122.168 91.515C122.04 91.515 121.913 91.515 121.772 91.515L121.438 91.3867C121.708 90.7069 121.965 89.9988 122.235 89.2308C122.235 89.1958 122.255 89.1625 122.261 89.1358C124.045 83.9021 124.994 78.4202 125.072 72.8915L125.795 72.8765Z" fill="#F36E24"/>
<path id="Vector_28" d="M130.977 72.0116C130.981 77.9438 130.085 83.8423 128.319 89.5055C128.316 89.5369 128.307 89.5673 128.293 89.5955C128.113 90.1953 127.911 90.8051 127.699 91.4099C127.523 91.4998 127.416 91.5465 127.235 91.6315C127.235 91.6315 127.235 91.6315 127.225 91.6315H127.21L126.888 91.5148C127.13 90.8301 127.361 90.1403 127.568 89.4656C127.58 89.4358 127.59 89.4052 127.598 89.3739C131.072 78.1969 131.113 66.2345 127.714 55.0342C127.936 55.0334 128.151 55.1047 128.328 55.2373C128.505 55.3698 128.634 55.5565 128.696 55.7689C130.212 61.0498 130.98 66.5174 130.977 72.0116Z" fill="#F36E24"/>
<path id="Vector_29" d="M136.626 72.0116C136.633 78.079 135.783 84.1171 134.102 89.947L134.087 90.007C133.92 90.6118 133.724 91.2366 133.517 91.8663C133.341 91.958 133.241 92.013 133.064 92.0979L133.039 92.0879L132.716 91.983C132.949 91.2616 133.171 90.5468 133.372 89.862C133.382 89.8404 133.382 89.8204 133.392 89.7954C137.845 74.3536 136.329 57.802 129.144 43.4265H129.325C129.517 43.4267 129.704 43.4804 129.866 43.5817C130.029 43.6831 130.159 43.8278 130.243 43.9996C134.46 52.7349 136.642 62.312 136.626 72.0116Z" fill="#F36E24"/>
<path id="Vector_30" d="M71.9983 0C32.298 0 0 32.3004 0 72C0 73.4761 0.0399834 74.9323 0.128284 76.3751V76.3885C0.276562 78.741 0.526472 81.0652 0.896335 83.351C1.29577 85.9159 1.83921 88.4562 2.52406 90.96C2.70566 91.6548 2.90892 92.3496 3.11718 93.0293C3.63698 92.9827 4.12847 92.936 4.60663 92.8811C4.39171 92.188 4.18178 91.4799 3.98686 90.7718C2.3035 84.6566 1.45115 78.3426 1.4528 72C1.4528 33.1085 33.0977 1.46282 71.9883 1.46282C110.879 1.46282 142.524 33.1085 142.524 72C142.532 78.3431 141.68 84.6579 139.99 90.7718C139.802 91.4799 139.592 92.188 139.377 92.8811C139.855 92.936 140.346 92.9827 140.866 93.0293C141.074 92.3496 141.278 91.6548 141.466 90.96C142.151 88.4606 142.696 85.9247 143.097 83.3644C143.467 81.0718 143.723 78.741 143.865 76.3885C143.953 74.939 144 73.4828 144 72.0066C144 32.3004 111.7 0 71.9983 0ZM121.047 122.647C120.345 123.314 119.637 123.98 118.909 124.622C106.007 136.159 89.3063 142.537 71.9983 142.537C54.6903 142.537 37.9893 136.159 25.0874 124.622C24.3593 123.982 23.6512 123.32 22.9565 122.647C22.1235 122.579 21.3654 122.506 20.659 122.424C21.3388 123.126 22.0468 123.814 22.7616 124.48C36.0924 137.019 53.7041 144 72.005 144C90.3059 144 107.918 137.019 121.248 124.48C121.963 123.814 122.671 123.126 123.351 122.424C122.633 122.506 121.878 122.579 121.044 122.647H121.047Z" fill="#F36E24"/>
<path id="Vector_31" d="M110.678 68.6794L110.344 68.9876L109.446 69.7857C109.28 69.9373 109.096 70.0822 108.927 70.2338C108.757 70.3854 108.558 70.582 108.372 70.752C108.15 70.9536 107.922 71.1502 107.705 71.3534C107.519 71.52 107.342 71.7066 107.159 71.8816C107.027 72.0049 106.887 72.1215 106.754 72.2431C106.667 72.3231 106.587 72.4097 106.499 72.493C106.411 72.5764 106.313 72.6597 106.219 72.748L105.821 73.1145C105.586 73.3278 105.348 73.5393 105.116 73.7559C104.047 74.7556 102.984 75.7686 101.912 76.7716C101.718 76.9532 101.504 77.1148 101.298 77.2847C100.555 77.8938 99.7704 78.4505 98.9502 78.9508C98.5802 79.188 98.1802 79.3745 97.7607 79.5056C97.3619 79.6439 96.9336 79.6738 96.5195 79.5922C96.3426 79.5536 96.1768 79.4752 96.0348 79.3629C95.8927 79.2506 95.7782 79.1074 95.6998 78.9441C95.502 78.5708 95.4373 78.1412 95.5165 77.7262C95.6226 77.2392 95.8132 76.7746 96.0796 76.3534C96.6512 75.4272 97.35 74.586 98.1555 73.8542C98.3705 73.6694 98.6 73.5023 98.8419 73.3544C99.5639 72.8668 100.286 72.3831 101.008 71.9032C101.599 71.5117 102.207 71.1452 102.789 70.737C103.621 70.1605 104.442 69.5713 105.253 68.9693C105.901 68.4878 106.531 67.9796 107.169 67.4815C107.268 67.3998 107.394 67.3592 107.522 67.3682C107.892 67.3935 108.258 67.4578 108.615 67.5598C109.078 67.6879 109.521 67.8815 109.929 68.1346C110.176 68.2878 110.409 68.4678 110.648 68.6344C110.659 68.6483 110.669 68.6633 110.678 68.6794ZM109.073 68.846C109.063 68.6794 108.942 68.6344 108.843 68.5744C108.492 68.3791 108.116 68.2333 107.725 68.1412C107.682 68.1204 107.634 68.1117 107.586 68.1161C107.538 68.1205 107.492 68.1378 107.454 68.1662C106.831 68.6877 106.204 69.2025 105.579 69.7223C105.413 69.8623 105.413 69.9723 105.579 70.1005C105.975 70.3813 106.425 70.575 106.901 70.6687C106.95 70.6808 107.002 70.6797 107.052 70.6654C107.101 70.651 107.145 70.624 107.181 70.587C107.624 70.1789 108.074 69.7773 108.513 69.3708C108.712 69.1942 108.892 69.0126 109.073 68.846ZM99.5967 74.1275C101.114 73.2778 102.566 72.3364 103.825 71.1285C102.717 71.5384 100.155 73.3577 99.5967 74.1275Z" fill="#F36E24"/>
<path id="Vector_32" d="M101.003 84.5973L97.3556 86.9781C97.3475 86.9436 97.3419 86.9085 97.3389 86.8732C97.336 86.6068 97.3685 86.3412 97.4356 86.0834C97.5105 85.7869 97.5738 85.4886 97.6471 85.1921C97.7205 84.8955 97.7888 84.6406 97.8671 84.359C97.9754 83.9858 98.0853 83.6143 98.2003 83.2477C98.3152 82.8812 98.4485 82.5047 98.5968 82.1431C98.8034 81.6433 99.0183 81.1435 99.2632 80.6437C99.5946 79.9647 100.018 79.3345 100.521 78.771C101.652 77.5081 102.872 76.3352 104.113 75.1822C105.068 74.2975 106.034 73.4245 106.994 72.5448C107.255 72.3049 107.51 72.0566 107.772 71.8167C107.95 71.6501 108.133 71.4935 108.313 71.3302C108.522 71.1436 108.729 70.9554 108.935 70.7654C109.151 70.5672 109.363 70.3622 109.581 70.1673C109.999 69.7924 110.414 69.4209 110.841 69.0493C110.841 69.0493 110.854 69.0493 110.877 69.041C110.885 69.0745 110.891 69.1084 110.894 69.1427C110.894 69.9307 110.894 70.7188 110.894 71.5068C110.876 71.7133 110.783 71.9062 110.634 72.05C109.958 72.8908 109.281 73.7322 108.605 74.5741C108.105 75.1955 107.587 75.8053 107.105 76.4368C106.772 76.875 106.461 77.3398 106.149 77.7996C106.128 77.834 106.096 77.8609 106.059 77.8767C106.022 77.8925 105.98 77.8965 105.941 77.8879C105.737 77.873 105.536 77.8563 105.334 77.8296C104.863 77.7691 104.387 77.7535 103.913 77.783C103.452 77.8143 103.012 77.9891 102.655 78.2828C102.27 78.5968 101.921 78.9515 101.612 79.3408C100.927 80.1667 100.301 81.0408 99.7414 81.9565C99.5822 82.1882 99.4539 82.4397 99.3598 82.7046C99.2747 82.9832 99.2854 83.2823 99.3902 83.5541C99.495 83.8259 99.6878 84.0548 99.938 84.2041C100.236 84.3752 100.567 84.4808 100.909 84.514L101.003 84.5306V84.5973ZM109.651 71.7367C108.231 73.042 107.038 74.574 106.121 76.2702C107.365 74.8173 108.636 73.3812 109.651 71.7367Z" fill="#F36E24"/>
<path id="Vector_33" d="M100.22 78.5325C100.098 78.6791 99.973 78.8257 99.8547 78.9756C99.4775 79.4556 99.1546 79.9758 98.8917 80.5268C98.6535 81.0266 98.4235 81.5264 98.2253 82.0262C98.0087 82.5861 97.8271 83.1575 97.6455 83.729C97.5139 84.1405 97.3973 84.562 97.2906 84.9752C97.1923 85.3568 97.114 85.7433 97.0257 86.1282C97.0174 86.1565 97.0074 86.1843 96.9957 86.2115C95.1858 85.5104 93.4404 84.653 91.7793 83.649C91.761 83.669 91.7444 83.679 91.7394 83.694C91.6311 83.9856 91.3945 84.1672 91.1696 84.3604C90.686 84.766 90.1544 85.1107 89.5868 85.3868C89.5478 85.4066 89.5036 85.4142 89.4602 85.4084C89.5035 85.3601 89.5468 85.3101 89.5935 85.2651C90.0833 84.7886 90.5748 84.3127 91.0679 83.8373C91.1811 83.7506 91.2766 83.6432 91.3495 83.5207C91.4077 83.3668 91.4382 83.2038 91.4395 83.0392C91.4832 82.7022 91.5614 82.3706 91.6727 82.0496C91.8815 81.4324 92.1429 80.8343 92.4541 80.2619C92.7407 79.7204 93.0489 79.1889 93.3521 78.6558C93.4754 78.4392 93.6003 78.2226 93.7403 78.016C93.8802 77.8094 94.0735 77.5678 94.2401 77.3495C94.7147 76.7326 95.253 76.1674 95.8462 75.6635C96.0511 75.4769 96.2644 75.3003 96.4726 75.1187L96.4943 75.1353C96.4768 75.1671 96.4573 75.1977 96.436 75.2269C96.0686 75.6973 95.7536 76.2062 95.4963 76.7447C95.2747 77.2262 95.1114 77.7294 95.1748 78.2676C95.2547 78.969 95.5413 79.5471 96.241 79.8287C96.5794 79.9495 96.943 79.9816 97.2973 79.922C97.957 79.8188 98.5867 79.5744 99.1433 79.2056C99.4848 78.9973 99.8097 78.7724 100.153 78.5558C100.17 78.5448 100.188 78.5353 100.206 78.5275L100.22 78.5325ZM92.8573 82.4594C93.4304 81.698 93.7403 80.8133 94.0518 79.9286C93.3346 80.581 92.9051 81.491 92.8573 82.4594Z" fill="#F36E24"/>
<path id="Vector_34" d="M107.18 78.3429C107.123 78.5654 107.012 78.7706 106.857 78.9406C106.702 79.1107 106.508 79.2406 106.292 79.3192C105.858 79.4728 105.472 79.7383 105.173 80.0889C104.652 80.6385 104.176 81.2297 103.752 81.8566C103.555 82.1515 103.398 82.4748 103.225 82.7863C103.225 82.7946 103.212 82.8013 103.193 82.8246C102.92 82.2015 102.474 81.855 101.751 81.9233C101.776 81.8716 101.789 81.84 101.807 81.81C102.337 80.9733 102.934 80.1809 103.592 79.4408C103.946 79.0267 104.398 78.7086 104.908 78.5161C105.189 78.4191 105.48 78.3531 105.776 78.3195C106.132 78.2907 106.49 78.2801 106.847 78.2879C106.96 78.2967 107.071 78.3151 107.18 78.3429Z" fill="#F36E24"/>
<path id="Vector_35" d="M104.856 78.0895C104.715 78.1512 104.595 78.2012 104.478 78.2561C103.969 78.5076 103.519 78.8642 103.158 79.3024C102.487 80.0779 101.883 80.9089 101.352 81.7866C101.186 82.0631 101.004 82.3347 100.843 82.6196C100.694 82.8861 100.636 83.1935 100.676 83.496C100.704 83.7733 100.81 84.0369 100.983 84.2557C100.996 84.2784 101.006 84.3024 101.014 84.3274C100.869 84.294 100.746 84.2724 100.626 84.2391C100.309 84.1718 100.025 83.9948 99.8247 83.7392C99.7091 83.5867 99.6436 83.4021 99.6373 83.2108C99.6311 83.0195 99.6843 82.831 99.7897 82.6713C100.19 82.0048 100.608 81.3551 101.034 80.7103C101.414 80.1392 101.836 79.5974 102.297 79.0892C102.573 78.7607 102.907 78.4856 103.282 78.2778C103.53 78.1578 103.801 78.0919 104.076 78.0845C104.306 78.0712 104.538 78.0845 104.768 78.0845C104.797 78.0833 104.827 78.0849 104.856 78.0895Z" fill="#F36E24"/>
<path id="Vector_36" d="M101.607 84.6738C101.607 84.9687 101.607 85.2336 101.607 85.4969C101.607 85.5335 101.559 85.5802 101.522 85.6052C101.154 85.8551 100.788 86.105 100.411 86.3449C99.6982 86.7948 98.9784 87.2329 98.2637 87.6778C97.7616 88.0056 97.2359 88.2957 96.691 88.5458C96.2929 88.7243 95.8752 88.8552 95.4464 88.9357C95.3832 88.9466 95.3189 88.9499 95.2548 88.9457C97.2974 87.4262 99.4599 86.0867 101.607 84.6738Z" fill="#F36E24"/>
<path id="Vector_37" d="M108.595 67.1417C108.835 66.9184 109.045 66.7135 109.261 66.5219C109.453 66.3553 109.655 66.202 109.858 66.052C109.88 66.0371 109.905 66.0269 109.931 66.0224C109.957 66.0178 109.984 66.0188 110.009 66.0254C110.549 66.184 111.065 66.4149 111.542 66.7118C111.579 66.7351 111.611 66.7651 111.641 66.7885C111.236 67.1816 110.836 67.5732 110.419 67.9797C109.862 67.6016 109.245 67.3185 108.595 67.1417Z" fill="#F36E24"/>
<path id="Vector_38" d="M101.956 82.3097C102.157 82.3124 102.352 82.3827 102.509 82.5093C102.665 82.6359 102.775 82.8114 102.82 83.0078C102.882 83.1934 102.892 83.3926 102.848 83.5834C102.805 83.7742 102.709 83.9492 102.572 84.0891C102.486 84.1841 102.379 84.258 102.26 84.3051C102.141 84.3521 102.013 84.3711 101.885 84.3604C101.757 84.3498 101.634 84.3099 101.524 84.2437C101.414 84.1776 101.322 84.0871 101.252 83.9792C101.088 83.7532 101.017 83.4729 101.054 83.196C101.09 82.9191 101.232 82.6669 101.449 82.4913C101.589 82.3685 101.77 82.3035 101.956 82.3097Z" fill="#F36E24"/>
<path id="Vector_39" d="M110.746 68.2095L111.77 67.0432C111.794 67.1265 111.815 67.1848 111.825 67.2448C111.915 67.7597 111.956 68.2817 111.95 68.8043C111.947 68.8553 111.947 68.9065 111.95 68.9575C111.963 69.0749 111.948 69.1936 111.907 69.3043C111.866 69.415 111.8 69.5147 111.714 69.5957C111.596 69.719 111.497 69.8622 111.391 69.9955C111.369 70.0238 111.342 70.0488 111.297 70.0972C111.297 70.0322 111.287 69.9972 111.287 69.9605C111.287 69.6656 111.296 69.3691 111.287 69.0742C111.285 68.9343 111.256 68.7963 111.201 68.6676C111.129 68.518 111.012 68.3942 110.867 68.3128C110.825 68.281 110.784 68.2465 110.746 68.2095Z" fill="#F36E24"/>
<path id="Vector_40" d="M90.5717 86.0781C90.5866 86.0598 90.6 86.0382 90.6166 86.0215C90.9748 85.6733 91.3314 85.3234 91.6912 84.9785C91.8579 84.8119 92.0245 84.6586 92.2027 84.5053C92.2377 84.4676 92.2851 84.4438 92.3363 84.4382C92.3875 84.4327 92.4389 84.4459 92.4811 84.4753C92.5233 84.5048 92.5535 84.5485 92.566 84.5984C92.5785 84.6483 92.5726 84.7011 92.5493 84.7469C92.5074 84.8166 92.4594 84.8823 92.406 84.9435C92.2013 85.1636 91.9708 85.3583 91.7196 85.5233C91.3956 85.7469 91.046 85.931 90.6783 86.0715C90.6477 86.0821 90.6166 86.091 90.585 86.0981L90.5717 86.0781Z" fill="#F36E24"/>
<path id="Vector_41" d="M94.25 87.9793C94.3899 87.831 94.5216 87.6827 94.6632 87.5445C95.043 87.1746 95.4279 86.8097 95.8128 86.4448C95.8523 86.4024 95.8991 86.3674 95.951 86.3415C95.9941 86.3233 96.042 86.3195 96.0875 86.331C96.1329 86.3424 96.1733 86.3683 96.2026 86.4049C96.2316 86.446 96.2462 86.4956 96.2441 86.546C96.242 86.5963 96.2233 86.6445 96.191 86.6831C96.0255 86.9058 95.8259 87.1009 95.5995 87.2612C95.1977 87.5587 94.7564 87.7987 94.2883 87.9743C94.2758 87.9776 94.2629 87.9793 94.25 87.9793Z" fill="#F36E24"/>
<path id="Vector_42" d="M91.7509 86.7482C91.7696 86.7232 91.7896 86.6993 91.8109 86.6765L93.3603 85.1937C93.4009 85.1524 93.4514 85.122 93.5069 85.1054C93.5489 85.0929 93.5939 85.0956 93.6341 85.1129C93.6743 85.1303 93.7072 85.1613 93.7268 85.2004C93.7515 85.2386 93.763 85.2839 93.7597 85.3292C93.7564 85.3746 93.7384 85.4177 93.7085 85.452C93.5415 85.6412 93.3623 85.8193 93.1721 85.9851C92.7484 86.3233 92.2669 86.5818 91.7509 86.7482Z" fill="#F36E24"/>
<path id="Vector_43" d="M92.939 87.3982L93.4954 86.8701L94.54 85.8704C94.5708 85.8386 94.6062 85.8117 94.645 85.7905C94.6901 85.7704 94.7407 85.7665 94.7883 85.7796C94.8359 85.7926 94.8775 85.8218 94.906 85.8621C94.9345 85.9024 94.9481 85.9513 94.9446 86.0005C94.941 86.0497 94.9205 86.0962 94.8866 86.132C94.7075 86.329 94.5154 86.5137 94.3118 86.6852C93.9122 86.9935 93.4685 87.2401 92.9956 87.4166C92.9811 87.4222 92.966 87.4261 92.9506 87.4282L92.939 87.3982Z" fill="#F36E24"/>
<path id="Vector_44" d="M106.727 69.2158L107.727 69.694L106.985 70.4071C106.615 70.308 106.267 70.1383 105.961 69.9073L106.727 69.2158Z" fill="#F36E24"/>
<path id="Vector_45" d="M107.935 69.5125L106.935 69.036L107.602 68.4329C107.962 68.5326 108.305 68.6866 108.618 68.8894L107.935 69.5125Z" fill="#F36E24"/>
<path id="Vector_46" d="M72.3849 98.379L72.2066 98.6455L70.0658 101.798L69.7675 102.184L68.7579 103.554L68.4897 103.94L67.6566 105.397L67.3884 105.813L66.4671 107.181L66.1689 107.597L65.2192 108.965L64.921 109.352L63.9397 110.72L63.8214 110.958V113.367L63.9397 114.973L63.9097 115.448L63.7914 117.054V117.531L63.9097 118.779L63.9397 119.195L63.8497 119.433L63.7314 119.553L63.4632 119.612H61.5023L58.0235 119.492L57.9053 119.403L57.8453 119.107V115.441L57.8153 114.967L57.697 113.36L57.667 112.884L57.7853 111.278L57.7253 111.011L57.5171 110.803L56.714 109.375L56.4475 108.959L55.4962 107.626L55.2279 107.209L54.3666 105.781L54.1283 105.365L52.0458 102.213L51.8075 101.796L50.9162 100.398L50.6729 99.9851L49.8099 98.5572L49.7216 98.289L49.7516 98.1407L49.9299 98.0224H53.9151L54.3899 98.0524L56.1159 98.1407L56.4491 98.1707L56.5674 98.2607L57.4304 99.7468L57.6687 100.133L58.56 101.466L58.7983 101.853L59.5713 103.221L59.8395 103.637L60.6426 104.917L60.8508 105.183L61.0291 105.243L61.2374 105.035L61.9804 103.607L62.2486 103.221L63.1683 101.918L63.4349 101.531L64.1796 100.133L64.4162 99.7168L65.2492 98.349L65.4874 98.0524L65.7257 97.9924L66.0589 98.0224L67.5467 98.1107H68.0215L69.7475 98.0224H70.2224L71.9184 98.1407L72.2749 98.199L72.4232 98.2607L72.3849 98.379Z" fill="#F36E24"/>
<path id="Vector_47" d="M95.6096 108.549L95.5796 109.025L95.5196 109.708L95.4613 110.155L95.2814 111.046L95.2231 111.731L95.1631 112.178L95.0748 112.652L94.9548 113.099L94.6583 113.724L94.45 114.14L93.647 115.473L93.3787 115.86L93.0822 116.246L92.784 116.579L92.3075 117.079L91.9743 117.376L91.5877 117.674L91.2312 117.941L90.6964 118.299L90.3099 118.537L89.8634 118.774L89.4468 118.952L88.8521 119.19L88.4056 119.31L87.4543 119.607L86.9544 119.755L86.4779 119.875L85.9781 119.993L85.4783 120.083L84.9785 120.113H83.3724L82.3611 120.053L81.3798 119.933L80.9633 119.845L80.5185 119.725L78.9124 119.19L78.4359 119.042L77.9361 118.834L76.9831 118.417L76.5383 118.179L76.0918 117.912L75.7053 117.614L75.3188 117.281L74.9622 116.894L74.629 116.508L73.826 115.705L73.5294 115.348L73.2312 114.962L72.9946 114.575L72.7564 113.979L72.3099 112.646L72.1316 112.021L72.0416 111.576L71.9533 111.1L71.865 110.655L71.7751 110L71.7451 109.553L71.7151 109.054V108.554L71.7451 108.054L71.7751 107.518L71.8334 107.018L71.9233 106.518L72.0416 106.018L72.1916 105.518L72.3399 105.072L72.5181 104.595L72.7264 103.912L72.9346 103.436L73.0529 103.167L73.2912 102.723L73.7077 102.068L74.0042 101.651L74.1542 101.413L74.5107 101.056L75.0105 100.64L75.3971 100.343L75.7836 100.075L76.6766 99.4803L77.0631 99.2421L77.4796 99.0055L77.8961 98.7972L78.5209 98.529L78.9358 98.3807L79.3823 98.2307L79.8288 98.1124L80.9583 97.9042L81.4048 97.8159L82.891 97.6376L83.8439 97.5776L84.7353 97.6376L85.4483 97.6676L85.9481 97.7259L86.448 97.8159L86.9478 97.9342L87.4476 98.0241L87.9241 98.1424L88.3689 98.2607L88.8154 98.4107L89.4402 98.6489L89.8567 98.8272L90.838 99.392L91.2245 99.6586L91.611 99.9568L92.1109 100.432L92.4441 100.73L92.7773 101.063L93.0455 101.42L93.462 101.986L93.7069 102.334L93.9152 102.721L94.1518 103.107L94.485 103.702L94.7216 104.089L94.9298 104.535L95.0798 104.952L95.228 105.635L95.4063 106.526L95.4663 107.026L95.5546 107.526L95.6096 108.549ZM88.3539 112.416L88.6205 111.999L88.9187 111.345L89.097 110.898L89.2453 110.215L89.3052 109.768L89.3635 109.055V108.555L89.3352 108.056L89.3052 107.579L89.127 106.688L89.007 106.271L88.6738 105.617L88.4356 105.23L88.019 104.695L87.7225 104.362L87.276 103.887L86.9428 103.619L86.1831 103.167L85.7666 102.991L85.2901 102.841L84.8152 102.753L83.8623 102.693L83.4174 102.723L82.7627 102.753L82.3162 102.841L81.5431 103.049L81.0683 103.227L80.3835 103.584L79.967 103.852L79.4955 104.267L79.1623 104.624L78.8291 105.07L78.5909 105.457L78.5026 105.635L78.2343 106.26L78.0861 106.706L77.9961 106.914L77.9078 107.329L77.8478 107.746L77.8295 108.166L77.7995 108.612V109.059L77.8295 109.533L77.9195 110.01L77.9478 110.277L78.0677 110.723L78.1277 110.931L78.276 111.348L78.3943 111.586L78.6325 112.003L78.7808 112.239L79.114 112.656L79.2923 112.866L79.6488 113.221L80.2436 113.72L80.6601 113.987L81.1349 114.225L81.5814 114.405L82.2062 114.613L82.6527 114.702L83.3958 114.79L83.8956 114.82L84.6386 114.76L85.1151 114.702L85.7699 114.553L86.1864 114.375L86.8395 113.959L87.1977 113.69L87.6725 113.214L87.9707 112.881L88.3539 112.416Z" fill="#F36E24"/>
<path id="Vector_48" d="M115.947 112.863L115.917 113.362L115.859 113.862L115.769 114.339L115.62 114.992L115.472 115.408L115.204 116.003L114.996 116.39L114.639 116.926L114.341 117.283L113.984 117.639L113.628 117.972L113.033 118.359L112.647 118.627L112.2 118.865L111.785 119.074L111.1 119.312L110.207 119.609L109.733 119.697L108.985 119.828L108.54 119.888L107.885 119.947L107.468 119.977L106.785 120.007L105.358 120.097H104.703L104.286 120.067L103.603 120.007L103.157 119.947L102.657 119.858L102.21 119.708L101.554 119.495L101.139 119.289L100.693 119.08L100.276 118.872L99.8896 118.634L98.9383 117.979L98.5801 117.683L98.0453 117.266L97.6888 116.968L97.3556 116.635L97.119 116.368L97.089 116.16L97.2373 115.891L97.3556 115.743L97.6538 115.41L98.4868 114.637L98.755 114.304L99.2549 113.531L99.5231 113.197L99.8196 112.864L100.153 112.686L100.486 112.746L100.819 112.982L101.771 113.637L102.217 113.875L102.634 114.084L103.317 114.417L103.763 114.567L104.24 114.715L104.715 114.803L105.399 114.833L105.876 114.863L107.748 114.744L108.223 114.685L108.461 114.625L108.908 114.447L109.294 114.209L109.593 113.912L109.741 113.704L109.919 113.257L109.889 112.758L109.831 112.519L109.593 112.103L109.443 111.925L109.058 111.628L108.82 111.538L108.373 111.36L107.873 111.24L107.374 111.151L104.541 110.883L103.65 110.705L103.173 110.587L102.519 110.348L102.074 110.2L101.627 109.992L100.616 109.492L100.229 109.225L99.783 108.957L99.3965 108.691L98.8967 108.272L98.6284 107.888L98.3602 107.441L98.1653 107L97.957 106.375L97.867 105.93L97.7771 105.275L97.7188 104.324L97.7487 103.847L97.8071 103.133L97.897 102.688L98.0153 102.301L98.1653 101.855L98.4618 101.2L98.6701 100.785L98.9083 100.427L99.2049 100.094L99.6814 99.6471L100.068 99.3505L100.454 99.0823L100.871 98.874L101.436 98.5408L102.327 98.1826L102.774 98.036L103.458 97.916L103.933 97.8277L104.826 97.7078L105.479 97.5895L105.956 97.5295L106.402 97.4995H106.877L107.77 97.5895L108.215 97.6478L108.423 97.7078L108.9 97.7678L109.911 97.946L110.411 98.0643L110.887 98.2126L111.387 98.3625L111.864 98.5408L112.31 98.7491L112.757 98.9274L113.321 99.2606L113.738 99.4688L114.123 99.7371L114.391 100.005V100.302L114.213 100.635L113.879 101.23L113.641 101.586L112.512 103.074L112.178 103.491L111.822 103.787L111.584 103.877L111.375 103.847L111.079 103.699L110.651 103.434L110.204 103.256L109.996 103.166L109.551 103.018L109.313 102.959L108.813 102.839L108.128 102.691L107.652 102.668L106.879 102.608H106.106L105.606 102.638L105.106 102.728L104.63 102.876L104.451 102.966L104.095 103.233L103.945 103.411L103.737 103.827L103.678 104.304L103.767 104.69L104.005 105.077L104.338 105.373L104.696 105.552L104.904 105.642L105.349 105.732L106.094 105.82L107.104 105.88L107.603 105.968L108.615 106.206L109.566 106.505L110.249 106.653L110.696 106.771L111.529 107.07L112.123 107.336L112.54 107.544L112.955 107.783L113.343 108.021L114.204 108.734L114.538 109.09L114.834 109.449L115.191 109.984L115.429 110.37L115.637 110.817L115.757 111.261L115.875 111.916L115.934 112.363L115.947 112.863Z" fill="#F36E24"/>
<path id="Vector_49" d="M136.436 116.728L136.406 117.203L136.286 118.809L136.258 119.107L136.138 119.315L135.99 119.434L132.094 119.554H131.618L130.042 119.434L129.567 119.464L128.021 119.582L127.544 119.612H125.492L123.946 119.492H123.469L120.912 119.642L119.902 119.582L119.544 119.524L119.336 119.374L119.247 119.165L119.187 118.832L119.129 118.147L119.099 117.673L119.129 117.226V116.779L119.247 115.203V114.729L119.277 113.152L119.247 112.676L119.158 111.1L119.129 110.625L119.187 109.019V106.5L119.306 104.924L119.277 104.447L119.187 102.871L119.158 102.394V101.681L119.217 100.79V100.335L119.306 98.7891L119.336 98.3725L119.426 98.1343L119.574 98.016L119.812 97.986L120.199 97.926L122.131 98.046L123.946 98.016H124.422L126.205 98.1343H126.681L128.466 98.016H128.941L132.986 98.0743L133.486 98.046L134.497 97.956H135.24L135.656 98.046L135.835 98.1926L135.893 98.4025L135.953 98.7891V99.5921L135.893 100.335V100.835L135.923 101.578L135.953 102.025L135.923 102.471L135.863 102.828L135.745 103.036L135.596 103.154L135.24 103.214H135.002L134.525 103.244L131.731 103.184H131.255L129.739 103.244H129.262L127.716 103.184L126.383 103.096H125.937L125.698 103.124L125.402 103.184L125.252 103.332L125.222 103.512L125.164 103.846L125.104 104.559V105.035L125.134 105.535L125.164 105.868L125.222 106.077L125.342 106.225L125.675 106.313L126.626 106.373L127.579 106.313H130.412L133.744 106.135L134.665 106.195L134.998 106.255L135.177 106.403L135.267 106.581L135.297 106.915L135.355 107.414L135.385 107.914V108.896L135.445 109.579L135.385 110.47L135.308 110.832L135.19 111.04L134.982 111.19L134.685 111.248H134.089L132.756 111.1L132.281 111.07L129.902 111.22L127.999 111.16H127.523L126.333 111.07L125.833 111.1L125.475 111.13L125.327 111.22L125.237 111.428L125.209 111.873L125.119 112.618L125.089 113.092V113.747L125.119 114.044L125.209 114.252L125.327 114.372L125.66 114.402L127.296 114.46H127.773L129.379 114.342L131.49 114.46H131.964L134.077 114.342H134.523L134.968 114.372L136.04 114.49L136.218 114.58L136.336 114.757L136.366 115.09L136.436 116.728Z" fill="#F36E24"/>
</g>
</svg>
