<svg width="24" height="24" viewBox="0 0 24 24" fill="none" xmlns="http://www.w3.org/2000/svg">
<g id="Iconly/Bold/Notification">
<g id="Notification">
<path id="Notification_2" fill-rule="evenodd" clip-rule="evenodd" d="M18.7068 8.79633C18.7068 10.0523 19.0388 10.7925 19.7693 11.6456C20.3228 12.2741 20.4998 13.0808 20.4998 13.956C20.4998 14.8302 20.2125 15.6601 19.6371 16.3339C18.8837 17.1417 17.8213 17.6573 16.737 17.747C15.1657 17.8809 13.5934 17.9937 12.0003 17.9937C10.4061 17.9937 8.8348 17.9263 7.26351 17.747C6.17821 17.6573 5.11577 17.1417 4.36342 16.3339C3.78798 15.6601 3.49976 14.8302 3.49976 13.956C3.49976 13.0808 3.67766 12.2741 4.23024 11.6456C4.98359 10.7925 5.29368 10.0523 5.29368 8.79633V8.3703C5.29368 6.68834 5.71309 5.58852 6.57675 4.51186C7.86082 2.9417 9.91911 2 11.9555 2H12.045C14.1251 2 16.25 2.98702 17.5122 4.62466C18.3312 5.67916 18.7068 6.73265 18.7068 8.3703V8.79633ZM9.07343 20.0608C9.07343 19.5573 9.53558 19.3266 9.96294 19.2279C10.4628 19.1222 13.509 19.1222 14.0089 19.2279C14.4363 19.3266 14.8985 19.5573 14.8985 20.0608C14.8736 20.5402 14.5923 20.9653 14.2037 21.2352C13.6999 21.628 13.1085 21.8767 12.4903 21.9664C12.1484 22.0107 11.8125 22.0117 11.4826 21.9664C10.8634 21.8767 10.272 21.628 9.76913 21.2342C9.37954 20.9653 9.09828 20.5402 9.07343 20.0608Z" fill="white"/>
</g>
</g>
</svg>
