<svg width="16" height="16" viewBox="0 0 16 16" fill="none" xmlns="http://www.w3.org/2000/svg">
<g id="Black">
<path id="Vector" d="M0.987526 2.29688C1.10315 2.05312 1.41565 1.725 1.65003 1.6C1.9719 1.42812 2.11878 1.40625 2.95628 1.40625L0.987526 2.29688ZM0.987526 2.29688C0.96711 2.33982 0.949073 2.37574 0.933138 2.41258C0.807605 2.70276 0.812526 3.04938 0.812526 7.32812C0.812526 11.1156 0.821901 11.7969 0.859401 11.9844L0.987526 2.29688ZM10.9072 1.92925L10.9749 1.6076C10.975 1.60763 10.9752 1.60765 10.9753 1.60768C10.9758 1.60778 10.9762 1.60788 10.9767 1.60797L10.9078 1.92934M10.9072 1.92925C10.9074 1.92928 10.9076 1.92931 10.9078 1.92934M10.9072 1.92925L10.8719 2.09688M10.9072 1.92925C10.8138 1.91638 10.6201 1.90625 10.1375 1.90625H10.0469H9.38128H9.37503L10.8719 2.09688M10.9078 1.92934L10.8719 2.09688M10.9078 1.92934C10.928 1.93214 10.9435 1.93507 10.9562 1.93805M10.8719 2.09688L11.0368 1.62226C11.036 1.62204 11.0351 1.62182 11.0342 1.62159L10.9521 1.93696C10.9534 1.93732 10.9548 1.93769 10.9562 1.93805M10.9562 1.93805C11.2933 2.02727 11.5695 2.27026 11.7216 2.65125C11.7219 2.6519 11.7222 2.65256 11.7224 2.65322C11.7249 2.65955 11.7274 2.66591 11.7299 2.67232L11.7304 2.67379C11.7363 2.68898 11.7383 2.69345 11.7394 2.69812C11.7402 2.70152 11.7405 2.70503 11.7416 2.71284C11.7474 2.75481 11.7539 2.83979 11.7592 3.03386C11.7612 3.10794 11.763 3.19479 11.7646 3.29728L10.9562 1.93805Z" fill="#0E1116" stroke="#0E1116"/>
<g id="Vector_2">
<mask id="path-2-inside-1_1788_442" fill="white">
<path d="M3.52813 7.24687C3.45625 7.31875 3.4375 7.36562 3.4375 7.46875C3.4375 7.63125 3.47813 7.70625 3.59375 7.76562C3.67188 7.80625 4.02188 7.8125 6.23438 7.8125C8.44688 7.8125 8.79688 7.80625 8.875 7.76562C8.99062 7.70625 9.03125 7.63125 9.03125 7.46875C9.03125 7.36562 9.0125 7.31875 8.94063 7.24687L8.85 7.15625H6.23438H3.61875L3.52813 7.24687Z"/>
</mask>
<path d="M3.52813 7.24687C3.45625 7.31875 3.4375 7.36562 3.4375 7.46875C3.4375 7.63125 3.47813 7.70625 3.59375 7.76562C3.67188 7.80625 4.02188 7.8125 6.23438 7.8125C8.44688 7.8125 8.79688 7.80625 8.875 7.76562C8.99062 7.70625 9.03125 7.63125 9.03125 7.46875C9.03125 7.36562 9.0125 7.31875 8.94063 7.24687L8.85 7.15625H6.23438H3.61875L3.52813 7.24687Z" fill="#0E1116"/>
<path d="M3.59375 7.76562L4.05056 6.87605L4.0551 6.87841L3.59375 7.76562ZM8.875 7.76562L8.41364 6.8784L8.4182 6.87606L8.875 7.76562ZM8.85 7.15625V6.15625H9.26421L9.55711 6.44914L8.85 7.15625ZM3.61875 7.15625L2.91164 6.44914L3.20454 6.15625H3.61875V7.15625ZM4.23523 7.95398C4.24108 7.94813 4.3235 7.86703 4.38209 7.72305C4.43959 7.58177 4.4375 7.46928 4.4375 7.46875H2.4375C2.4375 7.36509 2.44479 7.1776 2.52963 6.96914C2.61557 6.75797 2.74329 6.61749 2.82102 6.53977L4.23523 7.95398ZM4.4375 7.46875C4.4375 7.46861 4.43751 7.46205 4.43664 7.4505C4.43576 7.43892 4.43385 7.42019 4.42945 7.39604C4.42047 7.34676 4.40059 7.27209 4.35605 7.18797C4.25464 6.99641 4.10745 6.90527 4.05055 6.87606L3.13695 8.65519C2.96443 8.5666 2.73911 8.40828 2.58848 8.12375C2.45213 7.86621 2.4375 7.61533 2.4375 7.46875H4.4375ZM4.0551 6.87841C3.87039 6.78236 3.70983 6.78539 3.80829 6.7933C3.85316 6.79691 3.94657 6.80117 4.13143 6.80445C4.49436 6.8109 5.12478 6.8125 6.23438 6.8125V8.8125C5.13147 8.8125 4.48064 8.81097 4.09591 8.80414C3.90694 8.80078 3.75992 8.79586 3.64806 8.78687C3.58978 8.78219 3.35617 8.7692 3.1324 8.65284L4.0551 6.87841ZM6.23438 6.8125C7.34397 6.8125 7.97439 6.8109 8.33732 6.80445C8.52218 6.80117 8.61559 6.79691 8.66046 6.7933C8.75892 6.78539 8.59836 6.78236 8.41365 6.87841L9.33635 8.65284C9.11258 8.7692 8.87897 8.78219 8.82069 8.78687C8.70883 8.79586 8.56181 8.80078 8.37284 8.80414C7.98811 8.81097 7.33728 8.8125 6.23438 8.8125V6.8125ZM8.4182 6.87606C8.3613 6.90527 8.21411 6.99641 8.1127 7.18797C8.06816 7.27209 8.04828 7.34676 8.0393 7.39604C8.0349 7.42019 8.03299 7.43892 8.03211 7.4505C8.03124 7.46205 8.03125 7.46861 8.03125 7.46875H10.0312C10.0312 7.61533 10.0166 7.86621 9.88027 8.12375C9.72964 8.40828 9.50432 8.5666 9.3318 8.65519L8.4182 6.87606ZM8.03125 7.46875C8.03125 7.46928 8.02916 7.58177 8.08666 7.72305C8.14525 7.86703 8.22767 7.94813 8.23352 7.95398L9.64773 6.53977C9.72546 6.61749 9.85318 6.75797 9.93912 6.96914C10.024 7.1776 10.0312 7.36509 10.0312 7.46875H8.03125ZM8.23352 7.95398L8.14289 7.86336L9.55711 6.44914L9.64773 6.53977L8.23352 7.95398ZM8.85 8.15625H6.23438V6.15625H8.85V8.15625ZM6.23438 8.15625H3.61875V6.15625H6.23438V8.15625ZM4.32586 7.86336L4.23523 7.95398L2.82102 6.53977L2.91164 6.44914L4.32586 7.86336Z" fill="#0E1116" mask="url(#path-2-inside-1_1788_442)"/>
</g>
<g id="Vector_3">
<mask id="path-4-inside-2_1788_442" fill="white">
<path d="M3.5875 9.26875C3.475 9.32812 3.4375 9.40312 3.4375 9.5625C3.4375 9.66562 3.45625 9.7125 3.52812 9.78437L3.61875 9.875H5.24062C6.84375 9.875 6.8625 9.875 6.93437 9.80937C7.09375 9.65937 7.09375 9.43437 6.93437 9.3L6.8375 9.21875H5.25625C3.91875 9.22188 3.65937 9.22812 3.5875 9.26875Z"/>
</mask>
<path d="M3.5875 9.26875C3.475 9.32812 3.4375 9.40312 3.4375 9.5625C3.4375 9.66562 3.45625 9.7125 3.52812 9.78437L3.61875 9.875H5.24062C6.84375 9.875 6.8625 9.875 6.93437 9.80937C7.09375 9.65937 7.09375 9.43437 6.93437 9.3L6.8375 9.21875H5.25625C3.91875 9.22188 3.65937 9.22812 3.5875 9.26875Z" fill="#0E1116"/>
<path d="M3.5875 9.26875L4.07956 10.1393L4.06701 10.1464L4.05426 10.1531L3.5875 9.26875ZM3.61875 9.875V10.875H3.20454L2.91164 10.5821L3.61875 9.875ZM6.93437 9.80937L7.61974 10.5376L7.61423 10.5428L7.60864 10.5479L6.93437 9.80937ZM6.93437 9.3L7.57699 8.53381L7.57897 8.53548L6.93437 9.3ZM6.8375 9.21875V8.21875H7.20134L7.48011 8.45256L6.8375 9.21875ZM5.25625 9.21875L5.25391 8.21875H5.25625V9.21875ZM4.05426 10.1531C4.11831 10.1193 4.26395 10.0236 4.3617 9.83137C4.44377 9.66997 4.4375 9.54218 4.4375 9.5625H2.4375C2.4375 9.42344 2.44998 9.17847 2.57893 8.92488C2.72355 8.64046 2.94419 8.47755 3.12074 8.38437L4.05426 10.1531ZM4.4375 9.5625C4.4375 9.56197 4.43959 9.44948 4.38209 9.3082C4.3235 9.16422 4.24108 9.08312 4.23523 9.07727L2.82102 10.4915C2.74329 10.4138 2.61557 10.2733 2.52963 10.0621C2.44479 9.85365 2.4375 9.66616 2.4375 9.5625H4.4375ZM4.23523 9.07727L4.32586 9.16789L2.91164 10.5821L2.82102 10.4915L4.23523 9.07727ZM3.61875 8.875H5.24062V10.875H3.61875V8.875ZM5.24062 8.875C6.05645 8.875 6.43418 8.87478 6.62343 8.86753C6.7334 8.86332 6.69752 8.85837 6.62231 8.87717C6.56622 8.89119 6.48407 8.91872 6.3942 8.97236C6.31076 9.02216 6.25502 9.07554 6.26011 9.07089L7.60864 10.5479C7.59577 10.5596 7.52372 10.6274 7.41923 10.6897C7.30831 10.7559 7.20038 10.7942 7.10738 10.8175C6.95834 10.8547 6.8041 10.8621 6.70001 10.8661C6.46113 10.8752 6.02792 10.875 5.24062 10.875V8.875ZM6.24901 9.08118C6.14391 9.18009 6.05391 9.34367 6.05391 9.54883C6.05391 9.75866 6.14941 9.94617 6.28978 10.0645L7.57897 8.53548C8.23672 9.09005 8.17412 10.0158 7.61974 10.5376L6.24901 9.08118ZM6.29176 10.0662L6.19489 9.98494L7.48011 8.45256L7.57699 8.53381L6.29176 10.0662ZM6.8375 10.2188H5.25625V8.21875H6.8375V10.2188ZM5.25859 10.2187C4.58498 10.2203 4.20103 10.2227 3.97643 10.2293C3.86109 10.2326 3.8154 10.2365 3.80447 10.2377C3.76403 10.2424 3.90945 10.2355 4.07956 10.1393L3.09544 8.39819C3.30149 8.28172 3.50628 8.25881 3.57649 8.25076C3.6762 8.23932 3.79243 8.23378 3.9181 8.23011C4.17553 8.2226 4.59002 8.2203 5.25391 8.21875L5.25859 10.2187Z" fill="#0E1116" mask="url(#path-4-inside-2_1788_442)"/>
</g>
<path id="Vector_4" d="M13.1625 10.7594C13.125 10.7812 12.7062 11.1687 12.2312 11.6219C11.7562 12.075 11.3281 12.4812 11.275 12.525L11.1844 12.6031L10.6594 12.0812C10.1406 11.5656 10.1344 11.5625 9.99686 11.5625C9.83436 11.5625 9.74373 11.6187 9.68748 11.7469C9.60311 11.95 9.64061 12.0031 10.3687 12.7281L11.05 13.4062H11.2C11.3437 13.4062 11.3531 13.4 11.65 13.1156C11.8156 12.9562 12.3187 12.475 12.7656 12.05C13.65 11.2062 13.7062 11.1344 13.625 10.9375C13.55 10.7562 13.325 10.6687 13.1625 10.7594Z" fill="#0E1116"/>
</g>
</svg>
