<svg width="16" height="16" viewBox="0 0 16 16" fill="none" xmlns="http://www.w3.org/2000/svg">
<g id="Black">
<path id="Vector" d="M4.15725 2.99441C4.16389 2.97117 4.16992 2.94718 4.17518 2.92233C4.20117 2.7996 4.20322 2.68008 4.20322 2.5625C4.20322 2.44491 4.20117 2.32539 4.17518 2.20266C4.16629 2.16067 4.15521 2.12113 4.14271 2.08353L4.15725 2.99441ZM4.15725 2.99441L4.42509 3.075L4.15719 2.99463L4.15725 2.99441Z" fill="#0E1116" stroke="#0E1116"/>
<path id="Vector_2" d="M7.28125 1.41865C6.92187 1.4999 6.625 1.73427 6.475 2.05615C6.4 2.2124 6.39062 2.27177 6.39062 2.5624C6.39062 2.85927 6.4 2.90615 6.47812 3.0624C6.6375 3.36865 6.88437 3.58115 7.19375 3.67177C7.34375 3.71552 7.7625 3.71865 10.9875 3.7124L14.6094 3.70302L14.7812 3.61865C15.3844 3.32177 15.6219 2.58427 15.3062 1.99677C15.1844 1.76552 15.0219 1.61552 14.7531 1.4874L14.5469 1.39052L11 1.38427C8.27812 1.38115 7.4125 1.3874 7.28125 1.41865ZM14.4594 2.2374C14.5062 2.27177 14.575 2.35302 14.6094 2.41552C14.6656 2.52177 14.6687 2.5374 14.625 2.6624C14.5937 2.74677 14.5406 2.81865 14.4719 2.86552L14.3656 2.9374L10.8562 2.93115L7.35 2.92177L7.27187 2.8499C7.1625 2.74677 7.1125 2.61552 7.1375 2.4874C7.1625 2.3624 7.30937 2.1999 7.41562 2.17802C7.45312 2.17177 9.03437 2.16552 10.9281 2.16865C14.3625 2.17177 14.3719 2.17177 14.4594 2.2374Z" fill="#0E1116"/>
<path id="Vector_3" d="M2.06255 6.1125C1.6188 6.22813 1.17192 6.54688 0.918799 6.93125C0.853174 7.02813 0.759424 7.22813 0.706299 7.375C0.621924 7.6125 0.612549 7.67813 0.612549 8C0.612549 8.31875 0.625049 8.39063 0.706299 8.625C0.821924 8.95625 0.975049 9.19063 1.23442 9.43438C1.58755 9.7625 2.04067 9.9375 2.54692 9.9375C3.05317 9.9375 3.5063 9.7625 3.85942 9.43438C4.1188 9.19063 4.2688 8.95938 4.38755 8.625C4.47192 8.3875 4.4813 8.31875 4.4813 8C4.4813 7.68125 4.47192 7.6125 4.38755 7.375C4.33442 7.22813 4.24067 7.02813 4.17505 6.93125C3.9188 6.54063 3.47192 6.225 3.01567 6.10938C2.78442 6.05 2.29067 6.05 2.06255 6.1125ZM3.04067 6.95C3.27817 7.06563 3.49067 7.28438 3.6063 7.53125C3.69067 7.70938 3.70317 7.76875 3.70317 8C3.70317 8.23125 3.69067 8.29063 3.6063 8.46875C3.28442 9.14688 2.44692 9.37188 1.86255 8.93125C1.6813 8.79375 1.48755 8.52813 1.4313 8.33438C1.37505 8.13438 1.3813 7.79063 1.44692 7.62188C1.57192 7.29688 1.84692 7.02188 2.15942 6.90625C2.40942 6.8125 2.80005 6.83125 3.04067 6.95Z" fill="#0E1116"/>
<path id="Vector_4" d="M7.10313 6.8875C6.81875 6.97812 6.55313 7.22187 6.4125 7.525C6.34063 7.67813 6.32812 7.74375 6.32812 8C6.32812 8.25625 6.34063 8.32187 6.4125 8.475C6.52188 8.7125 6.7375 8.9375 6.95938 9.05L7.14062 9.14062H10.8594H14.5781L14.775 9.03437C15.6062 8.58437 15.6062 7.41562 14.775 6.96563L14.5781 6.85938L10.9062 6.85312C7.94687 6.85 7.20938 6.85625 7.10313 6.8875ZM14.4656 7.70312C14.6594 7.86875 14.6594 8.13125 14.4656 8.29688L14.3688 8.375H10.8563H7.34375L7.23438 8.27187C7.09688 8.15 7.0625 7.99375 7.1375 7.84062C7.24687 7.60938 6.95938 7.62812 10.8656 7.625H14.3688L14.4656 7.70312Z" fill="#0E1116"/>
<path id="Vector_5" d="M2.01572 11.5594C1.30322 11.7656 0.784465 12.3312 0.63759 13.0594C0.509465 13.7031 0.70634 14.3375 1.18447 14.8125C1.67822 15.3031 2.36259 15.4875 3.04384 15.3125C3.39072 15.225 3.63447 15.0812 3.90947 14.8125C4.16572 14.5625 4.31884 14.3031 4.42509 13.95C4.50947 13.6687 4.50322 13.175 4.41259 12.875C4.20947 12.2187 3.68759 11.7187 3.04072 11.55C2.78134 11.4812 2.26259 11.4875 2.01572 11.5594ZM3.04384 12.3844C3.27197 12.4906 3.48134 12.7062 3.60322 12.9625C3.69072 13.1469 3.70322 13.2031 3.70322 13.4375C3.70322 13.6719 3.69072 13.7281 3.60322 13.9125C3.48134 14.1687 3.29072 14.3656 3.04384 14.4875C2.87822 14.5687 2.82822 14.5781 2.56259 14.5781C2.28759 14.5781 2.24697 14.5687 2.05634 14.475C1.63447 14.2687 1.39697 13.8906 1.39384 13.4219C1.39072 13.2031 1.40322 13.1437 1.49072 12.9625C1.77509 12.3594 2.44384 12.1125 3.04384 12.3844Z" fill="#0E1116"/>
<path id="Vector_6" d="M7.13438 12.3438C6.93437 12.4157 6.83125 12.4844 6.65938 12.6719C6.44063 12.9094 6.39062 13.0532 6.39062 13.4375C6.39062 13.7282 6.4 13.7875 6.475 13.9438C6.63438 14.2875 6.9625 14.5313 7.34688 14.5938C7.60625 14.6344 14.1094 14.6344 14.4344 14.5938C15.0312 14.5157 15.4438 14.0438 15.4406 13.4375C15.4406 13.0438 15.2781 12.7157 14.975 12.4969C14.6531 12.2688 14.8969 12.2813 10.8938 12.2813C7.45312 12.2844 7.29063 12.2875 7.13438 12.3438ZM14.5312 13.1782C14.7063 13.3719 14.6781 13.6 14.4594 13.7625L14.3719 13.8282L10.9344 13.8375C7.62813 13.8438 7.49063 13.8438 7.3625 13.7844C7.1 13.6688 7.05313 13.3594 7.26562 13.1625L7.375 13.0625L10.9094 13.0688L14.4438 13.0782L14.5312 13.1782Z" fill="#0E1116"/>
</g>
</svg>
