<svg width="24" height="24" viewBox="0 0 24 24" fill="none" xmlns="http://www.w3.org/2000/svg">
<g id="Black">
<g id="Vector">
<mask id="path-1-inside-1_1829_1180" fill="white">
<path d="M11.5172 0.164062C11.1609 0.351562 11.0578 0.360937 10.7766 0.234375C10.2141 -0.0187511 9.77344 0.257812 9.7125 0.904686C9.66563 1.39219 9.91875 2.15625 10.4344 3.05625C10.5984 3.34219 10.7344 3.59531 10.7344 3.61406C10.7344 3.70781 10.5891 3.67969 10.4719 3.55781C10.275 3.35625 9.95625 3.16406 9.60938 3.04219C9.34219 2.94844 9.22031 2.93906 8.64844 2.94375C7.88438 2.95312 7.53281 2.8875 7.08281 2.64844C6.58594 2.38125 6.28125 2.46094 6.28125 2.85C6.28125 3.1125 6.54844 3.30469 7.24219 3.54375C7.58906 3.66562 7.67344 3.675 8.42344 3.68437C9.225 3.68906 9.23438 3.68906 9.525 3.83437C9.82031 3.97969 10.2516 4.35938 10.125 4.35938C9.89531 4.35938 9.15469 4.47187 8.83594 4.55156C8.31094 4.68281 7.66875 5.01094 7.32656 5.32031C6.98906 5.625 6.75 5.97656 6.75 6.17344C6.75 6.36562 6.91875 6.51562 7.13438 6.51562C7.28438 6.51562 7.32656 6.48281 7.55156 6.20156C7.875 5.79844 8.27344 5.53594 8.82188 5.35312C9.20156 5.23125 10.1063 5.07187 10.1531 5.12344C10.1672 5.13281 9.95625 5.31562 9.69375 5.53125C9.10313 6.00937 7.86563 7.24219 7.43438 7.78125C5.97188 9.60937 5.16563 11.5078 5.01562 13.4531C4.99219 13.7766 4.9875 14.1656 5.00156 14.3156L5.02969 14.5922L4.70625 14.5641C4.52813 14.5453 4.30313 14.5312 4.20938 14.5312H4.03125V14.3062C4.02656 13.8844 3.72656 13.4719 3.34219 13.3594C3.225 13.3266 2.78438 13.3125 2.08125 13.3219L0.998438 13.3359L0.80625 13.4625C0.703125 13.5328 0.553125 13.6922 0.482813 13.8141L0.351562 14.0391V18.4219V22.8047L0.454688 22.9922C0.567188 23.2078 0.707813 23.3438 0.9375 23.4656C1.08281 23.5453 1.21875 23.5547 2.20313 23.5547H3.30469L3.525 23.4234C3.78281 23.2734 3.975 22.9828 4.02188 22.6734L4.05469 22.4672L5.925 23.1609C6.95156 23.5453 7.94531 23.8922 8.1375 23.9297C8.42344 23.9906 9 24 11.6625 24H14.8453L15.3094 23.8828C15.5625 23.8172 15.9281 23.6859 16.125 23.5875C16.5891 23.3531 22.9969 19.2937 23.1938 19.1062C23.9625 18.3891 23.7281 17.0719 22.7578 16.6312C22.5797 16.5516 22.4391 16.5281 22.1719 16.5281C21.8391 16.5328 21.6 16.5984 21.0141 16.8609C20.9766 16.875 21.0047 16.7719 21.075 16.6125C21.2672 16.1719 21.4641 15.3328 21.525 14.6578C21.7266 12.4266 20.8734 10.0125 19.1109 7.82344C18.6141 7.20937 18.4172 7.03125 18.2344 7.03125C18.075 7.03125 17.9203 7.1625 17.8781 7.33594C17.8406 7.48125 17.9109 7.58906 18.4125 8.18437C19.3922 9.34687 20.1469 10.7156 20.5031 11.9766C20.7281 12.7734 20.7844 13.1859 20.7844 14.0391C20.7797 14.8922 20.7281 15.2531 20.4984 15.9609C20.3859 16.3125 20.0016 17.1234 19.8563 17.3109C19.8188 17.3625 18.8203 17.8266 17.6391 18.3469L15.4922 19.2937L15.4641 18.8578C15.4359 18.4922 15.4078 18.3656 15.2672 18.0844C15.0703 17.6719 14.85 17.4094 14.5172 17.1891C14.0813 16.8984 13.8609 16.8516 11.625 16.5937C10.4766 16.4625 9.4125 16.3219 9.2625 16.2844C8.89688 16.1906 8.49844 16.0078 7.93594 15.675C7.30781 15.3047 6.7125 15.0328 6.20625 14.8781L5.77969 14.7469L5.75156 14.3531C5.57812 11.5406 7.3125 8.41875 10.4578 5.89219L10.6734 5.71875L10.8797 5.80781C11.4234 6.04688 12.8156 6.1875 13.8328 6.10312C14.6109 6.0375 15.0797 5.94375 15.45 5.77031L15.7359 5.63906L15.9422 5.80312C16.0547 5.89687 16.3219 6.11719 16.5281 6.29062C16.8469 6.55781 16.9406 6.60938 17.0813 6.60938C17.3063 6.60938 17.4375 6.47812 17.4375 6.24844C17.4375 6.05625 17.3438 5.95781 16.5797 5.33906L16.1203 4.96875L16.1063 4.65C16.0969 4.32656 15.9797 4.02187 15.7875 3.81562C15.6984 3.71719 15.6984 3.7125 15.9516 3.3C16.5328 2.34375 16.8281 1.58437 16.8281 1.05C16.8234 0.290625 16.4016 -0.0375004 15.7734 0.234375C15.4781 0.360937 15.3891 0.356249 15.0281 0.164062C14.7516 0.0187492 14.6719 0 14.3672 0C14.0625 0 13.9875 0.0187492 13.7156 0.164062C13.5422 0.253124 13.3547 0.328125 13.2938 0.328125C13.2281 0.328125 13.0266 0.253124 12.8391 0.164062C12.5438 0.0234375 12.4453 0 12.1594 0C11.8688 0 11.7891 0.0187492 11.5172 0.164062ZM12.5438 0.876562C12.8109 1.01719 12.9281 1.05 13.2188 1.06875C13.5516 1.0875 13.5891 1.07812 13.8984 0.914062C14.0813 0.820312 14.2922 0.740623 14.3672 0.740623C14.4469 0.740623 14.6531 0.815624 14.8266 0.909374C15.1875 1.10156 15.4781 1.12969 15.8578 1.0125L16.0781 0.946875V1.07812C16.0781 1.42031 15.7406 2.18437 15.2203 3.02812L14.9625 3.44531L14.3344 3.5625C13.5797 3.69844 12.9094 3.70781 12.1453 3.58594L11.6156 3.50156L11.3906 3.15937C10.9172 2.43281 10.4531 1.3875 10.4531 1.05C10.4531 0.989061 10.4578 0.9375 10.4672 0.9375C10.4719 0.9375 10.5609 0.970312 10.6641 1.00781C11.0109 1.12969 11.3203 1.09687 11.7656 0.890625C11.9859 0.787498 12.1781 0.703125 12.1922 0.703125C12.2063 0.703125 12.3656 0.782812 12.5438 0.876562ZM11.7656 4.29375C12.5813 4.4625 13.65 4.4625 14.5688 4.28437C15.0984 4.18125 15.2156 4.21875 15.3281 4.53281C15.3891 4.71094 15.3844 4.74844 15.3141 4.89844C15.2203 5.09531 15.1406 5.13281 14.5078 5.25937C13.6359 5.44219 12.1359 5.39062 11.2875 5.15625C10.9266 5.05312 10.8047 4.65 11.0438 4.36406C11.1844 4.19531 11.2641 4.18594 11.7656 4.29375ZM3.19688 14.1422C3.27188 14.2125 3.28125 14.3109 3.28125 15.2766C3.28125 16.425 3.29531 16.5 3.54375 16.5937C3.67969 16.6453 3.92344 16.5703 3.98438 16.4531C4.0125 16.4062 4.03125 16.1203 4.03125 15.8156V15.2672L4.48594 15.3C5.41406 15.3656 6.17344 15.6 7.14844 16.1297C8.82656 17.0344 8.83594 17.0344 11.5312 17.3437C13.5281 17.5687 13.6313 17.5828 13.9078 17.7234C14.4469 17.9812 14.7188 18.4594 14.7188 19.125V19.5H12.8906C11.6344 19.5 11.0297 19.5187 10.95 19.5516C10.8047 19.6172 10.7203 19.8187 10.7625 19.9875C10.8281 20.2547 10.8 20.25 13.0969 20.25H15.2016L18.4641 18.8109C20.2594 18.0234 21.8297 17.3484 21.9563 17.3109C22.3875 17.1984 22.7578 17.4187 22.875 17.8641C22.9359 18.0938 22.8516 18.3891 22.6734 18.5484C22.5188 18.6937 16.1016 22.7437 15.7547 22.9172C15.5906 23.0016 15.2953 23.1141 15.0984 23.1703C14.7563 23.2641 14.6156 23.2687 11.9906 23.2875C10.2797 23.2969 9.05625 23.2875 8.75625 23.2547C8.19844 23.1984 8.18438 23.1937 5.81719 22.3125L4.03125 21.6469V19.6828C4.03125 17.7797 4.02656 17.7141 3.9375 17.625C3.79219 17.4797 3.50156 17.4984 3.37969 17.6531C3.28125 17.775 3.28125 17.8219 3.28125 20.1984C3.28125 21.5297 3.2625 22.6406 3.24375 22.6687C3.15469 22.8047 2.98125 22.8281 2.15625 22.8281C1.31719 22.8281 1.30781 22.8281 1.19063 22.7109L1.07812 22.5984L1.0875 18.3937C1.10156 14.3016 1.10156 14.1937 1.19063 14.1281C1.26563 14.0766 1.48125 14.0625 2.19844 14.0625C2.98125 14.0625 3.12188 14.0719 3.19688 14.1422Z"/>
</mask>
<path d="M11.5172 0.164062C11.1609 0.351562 11.0578 0.360937 10.7766 0.234375C10.2141 -0.0187511 9.77344 0.257812 9.7125 0.904686C9.66563 1.39219 9.91875 2.15625 10.4344 3.05625C10.5984 3.34219 10.7344 3.59531 10.7344 3.61406C10.7344 3.70781 10.5891 3.67969 10.4719 3.55781C10.275 3.35625 9.95625 3.16406 9.60938 3.04219C9.34219 2.94844 9.22031 2.93906 8.64844 2.94375C7.88438 2.95312 7.53281 2.8875 7.08281 2.64844C6.58594 2.38125 6.28125 2.46094 6.28125 2.85C6.28125 3.1125 6.54844 3.30469 7.24219 3.54375C7.58906 3.66562 7.67344 3.675 8.42344 3.68437C9.225 3.68906 9.23438 3.68906 9.525 3.83437C9.82031 3.97969 10.2516 4.35938 10.125 4.35938C9.89531 4.35938 9.15469 4.47187 8.83594 4.55156C8.31094 4.68281 7.66875 5.01094 7.32656 5.32031C6.98906 5.625 6.75 5.97656 6.75 6.17344C6.75 6.36562 6.91875 6.51562 7.13438 6.51562C7.28438 6.51562 7.32656 6.48281 7.55156 6.20156C7.875 5.79844 8.27344 5.53594 8.82188 5.35312C9.20156 5.23125 10.1063 5.07187 10.1531 5.12344C10.1672 5.13281 9.95625 5.31562 9.69375 5.53125C9.10313 6.00937 7.86563 7.24219 7.43438 7.78125C5.97188 9.60937 5.16563 11.5078 5.01562 13.4531C4.99219 13.7766 4.9875 14.1656 5.00156 14.3156L5.02969 14.5922L4.70625 14.5641C4.52813 14.5453 4.30313 14.5312 4.20938 14.5312H4.03125V14.3062C4.02656 13.8844 3.72656 13.4719 3.34219 13.3594C3.225 13.3266 2.78438 13.3125 2.08125 13.3219L0.998438 13.3359L0.80625 13.4625C0.703125 13.5328 0.553125 13.6922 0.482813 13.8141L0.351562 14.0391V18.4219V22.8047L0.454688 22.9922C0.567188 23.2078 0.707813 23.3438 0.9375 23.4656C1.08281 23.5453 1.21875 23.5547 2.20313 23.5547H3.30469L3.525 23.4234C3.78281 23.2734 3.975 22.9828 4.02188 22.6734L4.05469 22.4672L5.925 23.1609C6.95156 23.5453 7.94531 23.8922 8.1375 23.9297C8.42344 23.9906 9 24 11.6625 24H14.8453L15.3094 23.8828C15.5625 23.8172 15.9281 23.6859 16.125 23.5875C16.5891 23.3531 22.9969 19.2937 23.1938 19.1062C23.9625 18.3891 23.7281 17.0719 22.7578 16.6312C22.5797 16.5516 22.4391 16.5281 22.1719 16.5281C21.8391 16.5328 21.6 16.5984 21.0141 16.8609C20.9766 16.875 21.0047 16.7719 21.075 16.6125C21.2672 16.1719 21.4641 15.3328 21.525 14.6578C21.7266 12.4266 20.8734 10.0125 19.1109 7.82344C18.6141 7.20937 18.4172 7.03125 18.2344 7.03125C18.075 7.03125 17.9203 7.1625 17.8781 7.33594C17.8406 7.48125 17.9109 7.58906 18.4125 8.18437C19.3922 9.34687 20.1469 10.7156 20.5031 11.9766C20.7281 12.7734 20.7844 13.1859 20.7844 14.0391C20.7797 14.8922 20.7281 15.2531 20.4984 15.9609C20.3859 16.3125 20.0016 17.1234 19.8563 17.3109C19.8188 17.3625 18.8203 17.8266 17.6391 18.3469L15.4922 19.2937L15.4641 18.8578C15.4359 18.4922 15.4078 18.3656 15.2672 18.0844C15.0703 17.6719 14.85 17.4094 14.5172 17.1891C14.0813 16.8984 13.8609 16.8516 11.625 16.5937C10.4766 16.4625 9.4125 16.3219 9.2625 16.2844C8.89688 16.1906 8.49844 16.0078 7.93594 15.675C7.30781 15.3047 6.7125 15.0328 6.20625 14.8781L5.77969 14.7469L5.75156 14.3531C5.57812 11.5406 7.3125 8.41875 10.4578 5.89219L10.6734 5.71875L10.8797 5.80781C11.4234 6.04688 12.8156 6.1875 13.8328 6.10312C14.6109 6.0375 15.0797 5.94375 15.45 5.77031L15.7359 5.63906L15.9422 5.80312C16.0547 5.89687 16.3219 6.11719 16.5281 6.29062C16.8469 6.55781 16.9406 6.60938 17.0813 6.60938C17.3063 6.60938 17.4375 6.47812 17.4375 6.24844C17.4375 6.05625 17.3438 5.95781 16.5797 5.33906L16.1203 4.96875L16.1063 4.65C16.0969 4.32656 15.9797 4.02187 15.7875 3.81562C15.6984 3.71719 15.6984 3.7125 15.9516 3.3C16.5328 2.34375 16.8281 1.58437 16.8281 1.05C16.8234 0.290625 16.4016 -0.0375004 15.7734 0.234375C15.4781 0.360937 15.3891 0.356249 15.0281 0.164062C14.7516 0.0187492 14.6719 0 14.3672 0C14.0625 0 13.9875 0.0187492 13.7156 0.164062C13.5422 0.253124 13.3547 0.328125 13.2938 0.328125C13.2281 0.328125 13.0266 0.253124 12.8391 0.164062C12.5438 0.0234375 12.4453 0 12.1594 0C11.8688 0 11.7891 0.0187492 11.5172 0.164062ZM12.5438 0.876562C12.8109 1.01719 12.9281 1.05 13.2188 1.06875C13.5516 1.0875 13.5891 1.07812 13.8984 0.914062C14.0813 0.820312 14.2922 0.740623 14.3672 0.740623C14.4469 0.740623 14.6531 0.815624 14.8266 0.909374C15.1875 1.10156 15.4781 1.12969 15.8578 1.0125L16.0781 0.946875V1.07812C16.0781 1.42031 15.7406 2.18437 15.2203 3.02812L14.9625 3.44531L14.3344 3.5625C13.5797 3.69844 12.9094 3.70781 12.1453 3.58594L11.6156 3.50156L11.3906 3.15937C10.9172 2.43281 10.4531 1.3875 10.4531 1.05C10.4531 0.989061 10.4578 0.9375 10.4672 0.9375C10.4719 0.9375 10.5609 0.970312 10.6641 1.00781C11.0109 1.12969 11.3203 1.09687 11.7656 0.890625C11.9859 0.787498 12.1781 0.703125 12.1922 0.703125C12.2063 0.703125 12.3656 0.782812 12.5438 0.876562ZM11.7656 4.29375C12.5813 4.4625 13.65 4.4625 14.5688 4.28437C15.0984 4.18125 15.2156 4.21875 15.3281 4.53281C15.3891 4.71094 15.3844 4.74844 15.3141 4.89844C15.2203 5.09531 15.1406 5.13281 14.5078 5.25937C13.6359 5.44219 12.1359 5.39062 11.2875 5.15625C10.9266 5.05312 10.8047 4.65 11.0438 4.36406C11.1844 4.19531 11.2641 4.18594 11.7656 4.29375ZM3.19688 14.1422C3.27188 14.2125 3.28125 14.3109 3.28125 15.2766C3.28125 16.425 3.29531 16.5 3.54375 16.5937C3.67969 16.6453 3.92344 16.5703 3.98438 16.4531C4.0125 16.4062 4.03125 16.1203 4.03125 15.8156V15.2672L4.48594 15.3C5.41406 15.3656 6.17344 15.6 7.14844 16.1297C8.82656 17.0344 8.83594 17.0344 11.5312 17.3437C13.5281 17.5687 13.6313 17.5828 13.9078 17.7234C14.4469 17.9812 14.7188 18.4594 14.7188 19.125V19.5H12.8906C11.6344 19.5 11.0297 19.5187 10.95 19.5516C10.8047 19.6172 10.7203 19.8187 10.7625 19.9875C10.8281 20.2547 10.8 20.25 13.0969 20.25H15.2016L18.4641 18.8109C20.2594 18.0234 21.8297 17.3484 21.9563 17.3109C22.3875 17.1984 22.7578 17.4187 22.875 17.8641C22.9359 18.0938 22.8516 18.3891 22.6734 18.5484C22.5188 18.6937 16.1016 22.7437 15.7547 22.9172C15.5906 23.0016 15.2953 23.1141 15.0984 23.1703C14.7563 23.2641 14.6156 23.2687 11.9906 23.2875C10.2797 23.2969 9.05625 23.2875 8.75625 23.2547C8.19844 23.1984 8.18438 23.1937 5.81719 22.3125L4.03125 21.6469V19.6828C4.03125 17.7797 4.02656 17.7141 3.9375 17.625C3.79219 17.4797 3.50156 17.4984 3.37969 17.6531C3.28125 17.775 3.28125 17.8219 3.28125 20.1984C3.28125 21.5297 3.2625 22.6406 3.24375 22.6687C3.15469 22.8047 2.98125 22.8281 2.15625 22.8281C1.31719 22.8281 1.30781 22.8281 1.19063 22.7109L1.07812 22.5984L1.0875 18.3937C1.10156 14.3016 1.10156 14.1937 1.19063 14.1281C1.26563 14.0766 1.48125 14.0625 2.19844 14.0625C2.98125 14.0625 3.12188 14.0719 3.19688 14.1422Z" fill="#E9EAEC" stroke="#E9EAEC" stroke-width="0.2" mask="url(#path-1-inside-1_1829_1180)"/>
</g>
<path id="Vector_2" d="M13.0109 7.39391L13.011 7.39379C13.1377 7.29166 13.3347 7.2965 13.4518 7.40552L13.4525 7.4061L13.4525 7.40609C13.4944 7.4438 13.5144 7.47204 13.5265 7.51956C13.5399 7.57221 13.5437 7.64901 13.5437 7.78611V8.10018V8.14054L13.5832 8.14905L13.8222 8.20062L13.8224 8.20065C13.9723 8.23244 14.1442 8.29532 14.3009 8.37081C14.4582 8.44654 14.5962 8.53308 14.6802 8.61039C14.8421 8.75953 14.8512 8.98448 14.7302 9.10545C14.7123 9.1234 14.6802 9.14139 14.6365 9.15612C14.5937 9.17052 14.5442 9.18037 14.4957 9.18476C14.4469 9.18916 14.4015 9.18784 14.3668 9.18131C14.3494 9.17805 14.3363 9.17377 14.3273 9.1693C14.318 9.1647 14.3159 9.16138 14.3161 9.1616L14.316 9.16147C14.3066 9.14625 14.2916 9.13247 14.2777 9.12118C14.2626 9.10897 14.2441 9.09593 14.2234 9.08256C14.182 9.05578 14.1294 9.02597 14.0732 8.99681C13.9613 8.93877 13.8303 8.8809 13.7392 8.85381L13.7387 8.85366L13.6075 8.81616L13.5437 8.79795V8.86424V9.96111V11.0533V11.0877L13.5758 11.1L13.9555 11.2453L13.0109 7.39391ZM13.0109 7.39391C12.9705 7.42626 12.9493 7.45313 12.9346 7.5046C12.9183 7.56132 12.9101 7.6468 12.903 7.79783L12.903 7.79812M13.0109 7.39391L12.903 7.79812M12.903 7.79812L12.903 7.79952C12.8983 7.8874 12.8948 7.95511 12.8897 8.00686C12.8846 8.05798 12.8777 8.09918 12.8638 8.13121C12.8483 8.16687 12.8249 8.18991 12.7928 8.20516C12.7662 8.21786 12.7331 8.22509 12.6992 8.23248L12.695 8.2334L12.695 8.23342M12.903 7.79812L12.695 8.23342M12.695 8.23342C12.1129 8.35975 11.6055 8.9181 11.482 9.59509L11.482 9.59511M12.695 8.23342L11.482 9.59511M11.482 9.59511C11.4135 9.96953 11.4629 10.2995 11.6274 10.5873C11.7923 10.8759 12.0755 11.1267 12.4823 11.337L12.4826 11.3371M11.482 9.59511L12.4826 11.3371M12.4826 11.3371L12.8669 11.5387L12.8937 11.5528M12.4826 11.3371L12.8937 11.5528M12.8937 11.5528V11.583M12.8937 11.5528V11.583M12.8937 11.583V12.9471V14.3111V14.3679M12.8937 11.583V14.3679M12.8937 14.3679L12.8374 14.3607M12.8937 14.3679L12.8374 14.3607M12.8374 14.3607L12.6171 14.3326L12.6171 14.3326M12.8374 14.3607L12.6171 14.3326M12.6171 14.3326L12.6161 14.3324M12.6171 14.3326L12.6161 14.3324M12.6161 14.3324C12.4814 14.3125 12.2133 14.2112 12.0145 14.1071C11.8074 14.0012 11.6799 13.948 11.5882 13.9352C11.5441 13.9291 11.5102 13.9328 11.4804 13.9436C11.4501 13.9545 11.4206 13.9742 11.3873 14.0054L11.3872 14.0055M12.6161 14.3324L11.3872 14.0055M12.6843 8.18455C12.7369 8.17306 12.771 8.16559 12.794 8.14541C12.8366 8.108 12.8409 8.02691 12.8531 7.79549C12.8672 7.49549 12.8859 7.42986 12.9797 7.35487L12.6843 8.18455ZM12.6843 8.18455C12.0797 8.3158 11.5593 8.89236 11.4328 9.58611L12.6843 8.18455ZM11.3872 14.0055C11.3231 14.0653 11.2873 14.1289 11.275 14.1928C11.2628 14.2565 11.273 14.325 11.3086 14.3962C11.3353 14.4475 11.4041 14.5124 11.5086 14.5823C11.6112 14.651 11.7416 14.7203 11.8824 14.7821C12.1656 14.9066 12.4814 14.9971 12.689 14.9971H12.8437H12.8937M11.3872 14.0055L12.8937 14.9971M12.8937 14.9971V15.0471M12.8937 14.9971V15.0471M12.8937 15.0471V15.3799C12.8937 15.5346 12.8965 15.612 12.9128 15.6675C12.9277 15.7184 12.9547 15.7529 13.0194 15.8176C13.0802 15.8761 13.1159 15.9032 13.1482 15.9156C13.1779 15.927 13.2101 15.9278 13.2704 15.9167C13.3843 15.8947 13.4462 15.8568 13.4843 15.7876C13.5256 15.7126 13.5437 15.593 13.5437 15.3939V15.0517V15.014M12.8937 15.0471L13.5437 15.014M13.5437 15.014L13.58 15.0037M13.5437 15.014L13.58 15.0037M13.58 15.0037L13.7769 14.9474L13.7769 14.9474M13.58 15.0037L13.7769 14.9474M13.7769 14.9474L13.7778 14.9472M13.7769 14.9474L13.7778 14.9472M13.7778 14.9472C14.8978 14.65 15.552 13.3775 15.1501 12.3086M13.7778 14.9472L15.1501 12.3086M15.1501 12.3086C14.9644 11.824 14.5932 11.4902 13.9555 11.2453L15.1501 12.3086ZM12.8937 10.7392V10.8317L12.8164 10.7811L12.573 10.622C12.3451 10.4788 12.1962 10.2975 12.137 10.0878C12.0778 9.87787 12.1105 9.64686 12.232 9.4087L12.232 9.40867C12.2895 9.2961 12.3995 9.16501 12.5106 9.06044C12.5666 9.00782 12.6241 8.96068 12.6772 8.92515C12.7286 8.89074 12.7817 8.86322 12.8275 8.8569L12.8274 8.85643H12.8343C12.8589 8.85643 12.8719 8.87302 12.8749 8.87704C12.8789 8.88261 12.8809 8.88773 12.8815 8.88955C12.8831 8.8938 12.8837 8.89743 12.884 8.89858C12.8845 8.90165 12.8848 8.90464 12.885 8.90656C12.8854 8.91088 12.8857 8.91648 12.886 8.92278C12.8866 8.93564 12.8872 8.95418 12.8878 8.97754C12.8889 9.02437 12.8899 9.09186 12.8908 9.17484C12.8925 9.34088 12.8937 9.56957 12.8937 9.82049V10.7392ZM14.1273 12.0708L14.1273 12.0708L14.1277 12.0711C14.5409 12.3466 14.7067 12.8337 14.5605 13.3358C14.4395 13.7663 14.082 14.1608 13.7164 14.2745L13.7164 14.2745L13.7142 14.2751L13.6063 14.3032L13.5437 14.3196V14.2549V13.0596V11.8642V11.7934L13.6104 11.8171L13.7557 11.8687L13.739 11.9158L13.7558 11.8687L13.7557 11.8687C13.8415 11.899 14.005 11.9909 14.1273 12.0708Z" fill="#E9EAEC" stroke="#E9EAEC" stroke-width="0.1"/>
</g>
</svg>
