<svg width="16" height="16" viewBox="0 0 16 16" fill="none" xmlns="http://www.w3.org/2000/svg">
<g id="Black">
<g id="Vector">
<mask id="path-1-inside-1_1788_1108" fill="white">
<path d="M5.60938 0.0437012C5.15938 0.187451 4.81875 0.540576 4.70625 0.984326C4.63438 1.25308 4.63438 2.74683 4.70625 3.01558C4.80312 3.3937 5.07188 3.71558 5.43125 3.88433L5.64062 3.98433L6.65 3.9937L7.65625 4.00308V4.32808V4.65308L6.00938 4.66245L4.35938 4.67183L4.17813 4.74683C3.7375 4.92183 3.39375 5.3687 3.3375 5.83433C3.32812 5.89683 3.3125 5.89058 3.09375 5.74683C2.8 5.55308 2.45938 5.42183 2.0875 5.3562C1.43125 5.2437 0.98125 5.42808 0.753125 5.9062C0.684375 6.04995 0.671875 6.12183 0.671875 6.3437C0.671875 6.6562 0.74375 6.84058 0.953125 7.04683C1.125 7.22183 1.31563 7.3062 1.60938 7.3437C1.9125 7.3812 2.07187 7.47808 2.15625 7.66558C2.1875 7.73745 2.28438 8.2312 2.37188 8.76558C2.54375 9.80308 2.58438 9.98745 2.70938 10.2312C2.97813 10.7656 3.44375 11.1343 4.025 11.2843C4.24375 11.3406 4.38125 11.3437 5.94063 11.3437H7.625L7.60938 11.4281C7.6 11.4781 7.55938 11.8937 7.51562 12.3593C7.47188 12.8218 7.42812 13.2343 7.42188 13.2718C7.40938 13.3281 7.37813 13.3437 7.225 13.3593C5.54375 13.5406 4.65937 13.9937 4.65625 14.675C4.65625 15.2687 5.39687 15.7125 6.75313 15.9281C7.26562 16.0093 8.73438 16.0093 9.24687 15.9281C10.0625 15.7968 10.7219 15.5625 11.0375 15.2843C11.4375 14.9281 11.4406 14.4187 11.0437 14.0656C10.6438 13.7156 9.89375 13.4812 8.775 13.3593C8.62188 13.3437 8.59063 13.3281 8.57812 13.2718C8.57188 13.2343 8.52813 12.8218 8.48438 12.3593C8.44063 11.8937 8.4 11.4781 8.39062 11.4281L8.375 11.3437H10.0594C11.6188 11.3437 11.7563 11.3406 11.975 11.2843C12.5563 11.1343 13.0219 10.7656 13.2906 10.2312C13.4125 9.99058 13.4563 9.8062 13.6281 8.76558C13.7156 8.2312 13.8125 7.73745 13.8438 7.66558C13.925 7.47808 14.0875 7.3812 14.3906 7.3437C14.6844 7.3062 14.875 7.22183 15.0469 7.04683C15.2563 6.84058 15.3281 6.6562 15.3281 6.3437C15.3281 6.12183 15.3156 6.04995 15.2469 5.9062C15.0188 5.42808 14.5688 5.2437 13.9125 5.3562C13.5406 5.42183 13.2 5.55308 12.9062 5.74683C12.6875 5.89058 12.6719 5.89683 12.6625 5.83433C12.6062 5.3687 12.2625 4.92183 11.8219 4.74683L11.6406 4.67183L9.99375 4.66245L8.34375 4.65308V4.32808V4.00308L9.35313 3.9937L10.3594 3.98433L10.5688 3.88433C10.8031 3.77495 11.0375 3.55933 11.1656 3.3437C11.3219 3.07495 11.3438 2.9062 11.3438 1.99995C11.3438 1.0937 11.3219 0.924951 11.1656 0.656201C11.0375 0.440576 10.8031 0.224951 10.5688 0.115576L10.3594 0.0155764L8.04688 0.00932598C6.24062 0.00620079 5.70625 0.0124512 5.60938 0.0437012ZM10.2438 0.734326C10.3906 0.796826 10.4875 0.890576 10.5719 1.04683C10.6375 1.16558 10.6406 1.21245 10.6406 1.99995C10.6406 2.78745 10.6375 2.83433 10.5719 2.95308C10.4875 3.10933 10.3906 3.20308 10.2438 3.26558C10.1406 3.3062 9.85 3.31245 8 3.31245C6.15 3.31245 5.85938 3.3062 5.75625 3.26558C5.60938 3.20308 5.5125 3.10933 5.42812 2.95308C5.3625 2.83433 5.35938 2.78745 5.35938 1.99995C5.35938 1.21245 5.3625 1.16558 5.42812 1.04683C5.50938 0.893701 5.60625 0.799951 5.75 0.737451C5.91563 0.665576 10.0719 0.662451 10.2438 0.734326ZM11.5094 5.37808C11.6594 5.4187 11.8281 5.56558 11.9156 5.7312C11.975 5.84683 11.9812 5.90933 11.9844 6.35933C11.9844 6.83433 11.9812 6.87183 11.8969 7.08745C11.8344 7.24683 11.7625 7.59683 11.6531 8.2437C11.5688 8.75308 11.4906 9.20308 11.4844 9.24058L11.4688 9.31245H8H4.53125L4.51562 9.24058C4.50938 9.20308 4.43125 8.75308 4.34687 8.2437C4.2375 7.59683 4.16563 7.24683 4.10313 7.08745C4.01875 6.87183 4.01562 6.83433 4.01562 6.35933C4.01875 5.8062 4.04375 5.70933 4.24375 5.52183C4.43438 5.34058 4.28125 5.34683 7.98438 5.3437C10.2688 5.3437 11.4281 5.3562 11.5094 5.37808ZM2.1625 6.09058C2.75 6.25933 3.1875 6.65933 3.425 7.24995C3.47813 7.37495 3.5625 7.79683 3.68438 8.5187C3.89062 9.7312 3.90937 9.7812 4.18438 9.92808L4.32188 9.99995H8H11.6781L11.8156 9.92808C12.0906 9.7812 12.1094 9.7312 12.3156 8.5187C12.5063 7.3937 12.55 7.22495 12.7531 6.88745C12.8875 6.66558 13.1906 6.38433 13.4375 6.25308C13.8406 6.03745 14.3813 5.95933 14.5281 6.09683C14.6313 6.1937 14.6656 6.30308 14.6219 6.42808C14.575 6.57183 14.4812 6.62495 14.2125 6.65933C13.7656 6.71558 13.3875 6.97808 13.2094 7.3562C13.1375 7.5062 13.0844 7.7562 12.9375 8.62495C12.7281 9.85933 12.6938 9.96245 12.4062 10.2531C12.2125 10.45 11.9781 10.5718 11.7063 10.6218C11.4469 10.6687 4.55313 10.6687 4.29375 10.6218C4.02188 10.5718 3.7875 10.45 3.59375 10.2531C3.30625 9.96245 3.27188 9.85933 3.0625 8.62495C2.91563 7.7562 2.8625 7.5062 2.79063 7.3562C2.6125 6.97808 2.23438 6.71558 1.7875 6.65933C1.51875 6.62495 1.425 6.57183 1.37813 6.42808C1.33438 6.30308 1.36875 6.1937 1.47188 6.09683C1.56563 6.00933 1.87188 6.00933 2.1625 6.09058ZM7.33437 14.2437C7.32188 14.6093 7.4375 14.6875 8 14.6875C8.5625 14.6875 8.67813 14.6125 8.66563 14.2406L8.65938 14.0531L8.86875 14.075C9.24063 14.1125 9.63125 14.1906 9.93437 14.2875C10.2781 14.3968 10.4187 14.4625 10.5594 14.5812C10.6562 14.6625 10.6562 14.6656 10.6031 14.725C10.3094 15.05 9.14375 15.3125 8 15.3125C6.85625 15.3125 5.69063 15.05 5.39687 14.725C5.34375 14.6656 5.34375 14.6625 5.44063 14.5812C5.69688 14.3625 6.16563 14.2156 7.03125 14.0843C7.075 14.075 7.1625 14.0687 7.225 14.0656L7.3375 14.0625L7.33437 14.2437Z"/>
</mask>
<path d="M5.60938 0.0437012C5.15938 0.187451 4.81875 0.540576 4.70625 0.984326C4.63438 1.25308 4.63438 2.74683 4.70625 3.01558C4.80312 3.3937 5.07188 3.71558 5.43125 3.88433L5.64062 3.98433L6.65 3.9937L7.65625 4.00308V4.32808V4.65308L6.00938 4.66245L4.35938 4.67183L4.17813 4.74683C3.7375 4.92183 3.39375 5.3687 3.3375 5.83433C3.32812 5.89683 3.3125 5.89058 3.09375 5.74683C2.8 5.55308 2.45938 5.42183 2.0875 5.3562C1.43125 5.2437 0.98125 5.42808 0.753125 5.9062C0.684375 6.04995 0.671875 6.12183 0.671875 6.3437C0.671875 6.6562 0.74375 6.84058 0.953125 7.04683C1.125 7.22183 1.31563 7.3062 1.60938 7.3437C1.9125 7.3812 2.07187 7.47808 2.15625 7.66558C2.1875 7.73745 2.28438 8.2312 2.37188 8.76558C2.54375 9.80308 2.58438 9.98745 2.70938 10.2312C2.97813 10.7656 3.44375 11.1343 4.025 11.2843C4.24375 11.3406 4.38125 11.3437 5.94063 11.3437H7.625L7.60938 11.4281C7.6 11.4781 7.55938 11.8937 7.51562 12.3593C7.47188 12.8218 7.42812 13.2343 7.42188 13.2718C7.40938 13.3281 7.37813 13.3437 7.225 13.3593C5.54375 13.5406 4.65937 13.9937 4.65625 14.675C4.65625 15.2687 5.39687 15.7125 6.75313 15.9281C7.26562 16.0093 8.73438 16.0093 9.24687 15.9281C10.0625 15.7968 10.7219 15.5625 11.0375 15.2843C11.4375 14.9281 11.4406 14.4187 11.0437 14.0656C10.6438 13.7156 9.89375 13.4812 8.775 13.3593C8.62188 13.3437 8.59063 13.3281 8.57812 13.2718C8.57188 13.2343 8.52813 12.8218 8.48438 12.3593C8.44063 11.8937 8.4 11.4781 8.39062 11.4281L8.375 11.3437H10.0594C11.6188 11.3437 11.7563 11.3406 11.975 11.2843C12.5563 11.1343 13.0219 10.7656 13.2906 10.2312C13.4125 9.99058 13.4563 9.8062 13.6281 8.76558C13.7156 8.2312 13.8125 7.73745 13.8438 7.66558C13.925 7.47808 14.0875 7.3812 14.3906 7.3437C14.6844 7.3062 14.875 7.22183 15.0469 7.04683C15.2563 6.84058 15.3281 6.6562 15.3281 6.3437C15.3281 6.12183 15.3156 6.04995 15.2469 5.9062C15.0188 5.42808 14.5688 5.2437 13.9125 5.3562C13.5406 5.42183 13.2 5.55308 12.9062 5.74683C12.6875 5.89058 12.6719 5.89683 12.6625 5.83433C12.6062 5.3687 12.2625 4.92183 11.8219 4.74683L11.6406 4.67183L9.99375 4.66245L8.34375 4.65308V4.32808V4.00308L9.35313 3.9937L10.3594 3.98433L10.5688 3.88433C10.8031 3.77495 11.0375 3.55933 11.1656 3.3437C11.3219 3.07495 11.3438 2.9062 11.3438 1.99995C11.3438 1.0937 11.3219 0.924951 11.1656 0.656201C11.0375 0.440576 10.8031 0.224951 10.5688 0.115576L10.3594 0.0155764L8.04688 0.00932598C6.24062 0.00620079 5.70625 0.0124512 5.60938 0.0437012ZM10.2438 0.734326C10.3906 0.796826 10.4875 0.890576 10.5719 1.04683C10.6375 1.16558 10.6406 1.21245 10.6406 1.99995C10.6406 2.78745 10.6375 2.83433 10.5719 2.95308C10.4875 3.10933 10.3906 3.20308 10.2438 3.26558C10.1406 3.3062 9.85 3.31245 8 3.31245C6.15 3.31245 5.85938 3.3062 5.75625 3.26558C5.60938 3.20308 5.5125 3.10933 5.42812 2.95308C5.3625 2.83433 5.35938 2.78745 5.35938 1.99995C5.35938 1.21245 5.3625 1.16558 5.42812 1.04683C5.50938 0.893701 5.60625 0.799951 5.75 0.737451C5.91563 0.665576 10.0719 0.662451 10.2438 0.734326ZM11.5094 5.37808C11.6594 5.4187 11.8281 5.56558 11.9156 5.7312C11.975 5.84683 11.9812 5.90933 11.9844 6.35933C11.9844 6.83433 11.9812 6.87183 11.8969 7.08745C11.8344 7.24683 11.7625 7.59683 11.6531 8.2437C11.5688 8.75308 11.4906 9.20308 11.4844 9.24058L11.4688 9.31245H8H4.53125L4.51562 9.24058C4.50938 9.20308 4.43125 8.75308 4.34687 8.2437C4.2375 7.59683 4.16563 7.24683 4.10313 7.08745C4.01875 6.87183 4.01562 6.83433 4.01562 6.35933C4.01875 5.8062 4.04375 5.70933 4.24375 5.52183C4.43438 5.34058 4.28125 5.34683 7.98438 5.3437C10.2688 5.3437 11.4281 5.3562 11.5094 5.37808ZM2.1625 6.09058C2.75 6.25933 3.1875 6.65933 3.425 7.24995C3.47813 7.37495 3.5625 7.79683 3.68438 8.5187C3.89062 9.7312 3.90937 9.7812 4.18438 9.92808L4.32188 9.99995H8H11.6781L11.8156 9.92808C12.0906 9.7812 12.1094 9.7312 12.3156 8.5187C12.5063 7.3937 12.55 7.22495 12.7531 6.88745C12.8875 6.66558 13.1906 6.38433 13.4375 6.25308C13.8406 6.03745 14.3813 5.95933 14.5281 6.09683C14.6313 6.1937 14.6656 6.30308 14.6219 6.42808C14.575 6.57183 14.4812 6.62495 14.2125 6.65933C13.7656 6.71558 13.3875 6.97808 13.2094 7.3562C13.1375 7.5062 13.0844 7.7562 12.9375 8.62495C12.7281 9.85933 12.6938 9.96245 12.4062 10.2531C12.2125 10.45 11.9781 10.5718 11.7063 10.6218C11.4469 10.6687 4.55313 10.6687 4.29375 10.6218C4.02188 10.5718 3.7875 10.45 3.59375 10.2531C3.30625 9.96245 3.27188 9.85933 3.0625 8.62495C2.91563 7.7562 2.8625 7.5062 2.79063 7.3562C2.6125 6.97808 2.23438 6.71558 1.7875 6.65933C1.51875 6.62495 1.425 6.57183 1.37813 6.42808C1.33438 6.30308 1.36875 6.1937 1.47188 6.09683C1.56563 6.00933 1.87188 6.00933 2.1625 6.09058ZM7.33437 14.2437C7.32188 14.6093 7.4375 14.6875 8 14.6875C8.5625 14.6875 8.67813 14.6125 8.66563 14.2406L8.65938 14.0531L8.86875 14.075C9.24063 14.1125 9.63125 14.1906 9.93437 14.2875C10.2781 14.3968 10.4187 14.4625 10.5594 14.5812C10.6562 14.6625 10.6562 14.6656 10.6031 14.725C10.3094 15.05 9.14375 15.3125 8 15.3125C6.85625 15.3125 5.69063 15.05 5.39687 14.725C5.34375 14.6656 5.34375 14.6625 5.44063 14.5812C5.69688 14.3625 6.16563 14.2156 7.03125 14.0843C7.075 14.075 7.1625 14.0687 7.225 14.0656L7.3375 14.0625L7.33437 14.2437Z" fill="#0E1116" stroke="#0E1116" stroke-width="2" mask="url(#path-1-inside-1_1788_1108)"/>
</g>
</g>
</svg>
