<svg width="28" height="28" viewBox="0 0 28 28" fill="none" xmlns="http://www.w3.org/2000/svg">
<g id="Bitcoin" clip-path="url(#clip0_1055_3505)">
<path id="Subtract" d="M14 0C21.732 0 28 6.30631 28 14.0856C28 21.116 22.8804 26.9433 16.1875 28V18.1572H19.4496L20.0703 14.0856H16.1875V11.4445C16.1875 10.3306 16.73 9.24365 18.4691 9.24365H20.2344V5.77728C20.2344 5.77728 20.0487 5.74541 19.7434 5.70336C19.2638 5.63732 18.489 5.54617 17.6748 5.51399C17.4844 5.50647 17.2919 5.50217 17.1005 5.50217C13.9027 5.50217 11.8125 7.45214 11.8125 10.9823V14.0856H8.25781V18.1572H11.8125V28C5.11957 26.9433 0 21.116 0 14.0856C0 6.30631 6.26801 0 14 0Z" fill="#1877F2"/>
</g>
<defs>
<clipPath id="clip0_1055_3505">
<rect width="28" height="28" fill="white"/>
</clipPath>
</defs>
</svg>
