<svg width="28" height="28" viewBox="0 0 28 28" fill="none" xmlns="http://www.w3.org/2000/svg">
<g id="Bitcoin" clip-path="url(#clip0_1055_3496)">
<g id="Group 19">
<path id="Vector" d="M27.7312 14.323C27.7312 13.3713 27.654 12.4144 27.4894 11.4781H14.2837V16.8695H21.846C21.5322 18.6083 20.5239 20.1465 19.0474 21.1239V24.6221H23.5591C26.2084 22.1836 27.7312 18.5826 27.7312 14.323Z" fill="#4285F4"/>
<path id="Vector_2" d="M14.2836 28.0019C18.0596 28.0019 21.244 26.7621 23.5641 24.622L19.0525 21.1239C17.7973 21.9778 16.1768 22.4614 14.2888 22.4614C10.6363 22.4614 7.53933 19.9972 6.42814 16.6842H1.77246V20.2905C4.14917 25.0182 8.99005 28.0019 14.2836 28.0019Z" fill="#34A853"/>
<path id="Vector_3" d="M6.42304 16.6842C5.83658 14.9454 5.83658 13.0626 6.42304 11.3238V7.71753H1.77251C-0.213231 11.6736 -0.213231 16.3344 1.77251 20.2904L6.42304 16.6842Z" fill="#FBBC04"/>
<path id="Vector_4" d="M14.2836 5.54146C16.2797 5.51059 18.2088 6.26168 19.6544 7.64037L23.6516 3.64318C21.1205 1.26647 17.7613 -0.0402117 14.2836 0.000943476C8.99005 0.000943476 4.14917 2.98469 1.77246 7.71754L6.423 11.3238C7.52904 8.00563 10.6311 5.54146 14.2836 5.54146Z" fill="#EA4335"/>
</g>
</g>
<defs>
<clipPath id="clip0_1055_3496">
<rect width="28" height="28" fill="white"/>
</clipPath>
</defs>
</svg>
